<?xml version="1.0" encoding="utf-8"?>
<!-- Generator: Adobe Illustrator 15.0.0, SVG Export Plug-In . SVG Version: 6.00 Build 0)  -->
<!DOCTYPE svg PUBLIC "-//W3C//DTD SVG 1.0//EN" "http://www.w3.org/TR/2001/REC-SVG-20010904/DTD/svg10.dtd">
<svg version="1.0" id="Layer_1" xmlns="http://www.w3.org/2000/svg" xmlns:xlink="http://www.w3.org/1999/xlink" x="0px" y="0px"
	 width="2000px" height="470px" viewBox="0 0 2000 470" enable-background="new 0 0 2000 470" xml:space="preserve">
<g>
	<path fill="#222F7D" d="M1870.32,0h8.3c10.17,0.15,20.35,0.21,30.48,1.25c6.01,0.8,12.67,1.1,17.61,5.08
		c6.63,5.68,9.29,14.34,12.92,21.98c3.65,7.27,6.8,14.78,9.63,22.4c0.63,2.18,1.55,5.25-0.66,6.84c-2.84,1.76-6.33,1.72-9.54,1.96
		c-66.39,1.02-132.63,8.89-197.52,22.89c-20.71,4.44-41.04,10.41-61.49,15.83c-6.38,1.33-13.59,3.78-19.71,0.38
		c-5.21-3.54-6.99-10.01-9.21-15.57c-3.67-10.49-7-21.09-10.36-31.69c-1.25-4.19-2.21-9.17,0.47-13.04
		c3.57-5.02,9.77-6.93,15.36-8.78c21.77-7.18,44.27-11.88,66.82-15.89c26.37-4.53,52.91-7.94,79.52-10.71
		c10.34-0.9,20.66-2.4,31.07-2.33C1846.11,0.4,1858.21,0.12,1870.32,0z"/>
	<path fill="#222F7D" d="M1502.36,217.56c8.6-2.43,18.47-1.14,25.61,4.44c12.3,9.41,12.65,29.96,1.37,40.29
		c-9.18,8.21-24.24,10.45-34.51,2.92c-11.91-7.91-15.47-25.98-7.18-37.68C1491.16,222.59,1496.57,219.2,1502.36,217.56z"/>
	<g>
		<path fill="#222F7D" d="M1320,233.23c13.39-6.96,28.61-8.94,43.38-10.83c2.99,33.01,0.08,66.15-1.51,99.15
			c3.8-3.77,5.79-9.26,10.59-11.99c4.23-2.38,7.66-6.02,12.27-7.75c12.04-4.87,25.61-6.98,38.36-3.72
			c9.57,2.41,19.2,6.44,25.95,13.89c11.79,12.69,16.83,30.11,18.67,46.97c1.69,17.51,0.5,35.45-4.49,52.36
			c-4.43,14.93-13.27,28.72-25.93,37.96c-7.08,5.32-15.16,9.12-23.38,12.3c-10.3,3.54-21.2,4.87-32.01,5.6
			c-14.67,0.83-29.48,0.33-43.95-2.3c-6.18-1.2-12.38-2.7-18.021-5.56C1320.09,383.95,1319.95,308.59,1320,233.23z M1367.46,357.67
			c-2.75,11.9-3.87,24.11-4.71,36.27c-0.64,12.5-1.2,25.14,0.62,37.57c10.66,2.46,22.06,3.69,32.68,0.35
			c7.65-2.31,14.36-7.35,18.89-13.92c7.95-11.62,10.1-26.18,9.88-39.99c-0.36-10.99-1.89-22.19-6.37-32.31
			c-3.82-8.5-13.04-14.2-22.4-13.27C1382.27,333.41,1371.39,345.01,1367.46,357.67z"/>
	</g>
	<path fill="#222F7D" d="M805.6,233.22c13.11-5.77,27.42-10.22,41.89-9.26c0.46,80.04,1,160.07,1.52,240.1
		c-14.48,0.01-28.95,0.01-43.41,0C805.59,387.11,805.58,310.17,805.6,233.22z"/>
	<g>
		<path fill="#222F7D" d="M0,240.96c31.32-1.25,62.95-4.38,94.11,0.59c15.85,2.73,32.86,7.98,42.95,21.38
			c11.2,14.67,12.98,35.31,6.11,52.22c-5.14,13.14-15.76,23.7-28.47,29.62c8.19,4.01,16.37,8.31,23.35,14.24
			c8.59,9.49,12.93,22.33,13.4,35.02c0.57,16.67-5.11,33.67-16.23,46.2c-8.97,9.74-21.22,15.9-33.84,19.42
			c-18.02,4.9-36.85,5.41-55.4,5.26c-15.33-0.22-30.65-0.76-45.98-0.86V240.96z M43.38,276.56c-0.52,18.58-1.02,37.17-1.54,55.75
			c10.68,1.73,21.71,2.08,32.35-0.12c7.83-1.64,15.64-4.9,21.19-10.83c7.31-7.9,8.7-20.1,4.91-29.94
			c-2.79-7.1-9.45-11.92-16.57-14.1C70.67,273.24,56.68,274.4,43.38,276.56z M41.76,366.56c0.13,20.59,0.04,41.19,0.05,61.79
			c12.55,1.96,25.58,2.48,37.99-0.63c7.33-1.91,14.6-5.41,19.41-11.44c5.84-7.29,7.16-17.3,5.83-26.31
			c-1.56-9.49-9.3-16.75-18-20.08C72.74,364.23,56.77,364.14,41.76,366.56z"/>
	</g>
	<g>
		<path fill="#222F7D" d="M172.05,298.29c26.58-8.78,55.06-13.43,82.97-9.33c12.05,1.8,24.36,6.09,32.89,15.18
			c10.79,11.4,13.77,27.75,14.15,42.92c0.66,38.99,1.08,78,1.65,117c-13.94,0.01-27.89,0.01-41.83,0
			c0.48-8.76,1.03-17.51,1.51-26.26c-3.16,4.64-5.9,9.69-10.13,13.48c-12.45,10.52-28.59,17.78-45.19,16.04
			c-12.91-0.32-26.17-4.68-35.18-14.26c-10.36-10.65-14.12-26.72-10.8-41.06c3.59-16.63,15.6-30.42,30.1-38.8
			c19.95-11.79,43.73-14.85,66.54-14.45c-0.15-8.66,0.17-18.12-4.82-25.64c-3.88-5.77-10.85-8.35-17.46-9.32
			c-13.82-1.93-27.97,0.19-41.04,4.88c-6.78,2.2-13.18,5.68-20.26,6.86C174.13,323.12,173.05,310.71,172.05,298.29z M225.06,392.43
			c-6.99,2.39-14.25,5.73-18.44,12.13c-4.17,5.83-5.29,14.08-1.49,20.39c2.92,5.77,9.8,8.13,15.91,8.18
			c8.37-0.04,16.52-3.19,23.46-7.72c10.01-9.5,14.18-23.71,14.25-37.22C247.42,388.24,235.92,389.01,225.06,392.43z"/>
	</g>
	<path fill="#222F7D" d="M414.98,289.04c12.1-2.18,25.23-1.39,36.09,4.8c9.63,5.36,16.76,14.91,19.27,25.63
		c1.56,6.72,2.34,13.59,2.98,20.45c3.18,41.31,1.11,82.77,0.73,124.14c-14.45,0.01-28.89,0.01-43.34,0
		c-0.01-28.02-0.01-56.03,0-84.05c0-12.01,1.26-24.14-0.79-36.06c-1.11-6.06-3.3-12.56-8.6-16.2c-5.41-3.71-12.44-3.34-18.55-1.92
		c-9.13,2.11-16.65,8.77-21.12,16.84c-6.31,11.25-8.6,24.2-9.89,36.88c-2.78,28.12-0.02,56.35,0.07,84.51
		c-14.98,0.01-29.96,0.01-44.94,0c-0.01-54.73-0.01-109.47-0.01-164.2c12.98-4.46,26.47-7.94,40.29-7.75
		c0.05,9.31-0.07,18.62,0.06,27.93c5.18-5.14,8.94-11.53,14.41-16.4C390.67,295.08,402.83,290.69,414.98,289.04z"/>
	<g>
		<path fill="#222F7D" d="M697.58,288.82c16.1-1.63,32.81,0.22,47.7,6.79c16.29,7.27,30.05,20.87,36.08,37.81
			c7.47,20.57,7.65,43.27,3.1,64.5c-3.76,17.97-12.05,35.39-25.56,48.08c-12.64,12.05-29.57,18.99-46.83,20.85
			c-18.03,1.89-37.12,0.18-53.25-8.68c-13.39-7.22-23.73-19.43-29.47-33.44c-8-19.28-8.37-40.87-5.06-61.22
			c2.33-17.57,9.36-34.71,21.19-48.04C658.62,300.36,677.72,290.9,697.58,288.82z M699.57,326.74c-8.87,1.94-16.58,7.72-21.69,15.13
			c-9.38,13.67-10.83,31.15-8.85,47.19c0.99,11.39,4.11,23.25,12.14,31.78c6.67,7.34,17.06,10.77,26.83,9.3
			c11.82-1.15,21.65-9.78,27.14-19.91c7.29-13.58,8.52-29.58,7-44.67c-1.39-12.03-6.05-24.35-15.62-32.22
			C719.17,327.16,708.95,324.56,699.57,326.74z"/>
	</g>
	<path fill="#222F7D" d="M1114.6,295.59c11.86-7.66,26.65-9.15,40.42-7.69c9.35,0.99,18.46,5.27,24.48,12.62
		c3.81,4.43,6.69,9.56,9.32,14.77c0.88,1.98,3.12,2.71,4.73,4.01c6.37-9.26,13.75-18.39,23.82-23.81
		c8.76-4.78,18.79-6.27,28.58-7.32c10.22-0.91,20.92,0.74,29.85,6c9.3,5.41,16.23,14.74,18.6,25.24
		c2.43,10.66,3.22,21.61,3.88,32.49c1.91,37.36,0.28,74.77-0.061,112.14c-14.91,1.56-30,1.56-44.91,0.02
		c1.37-27.66,1.82-55.36,1.74-83.05c-0.15-12.38-0.24-24.78-1.29-37.12c-0.36-6.02-2.95-12.28-8.18-15.61
		c-6.13-3.92-14.04-3.43-20.66-1.16c-5.4,1.96-10.82,4.84-14.17,9.66c-6.86,9.15-11.49,19.93-13.6,31.16
		c-1.5,7.61-1.11,15.4-1.15,23.11c-0.01,24.34,0.01,48.67-0.01,73.01c-14.44,0.01-28.89,0.01-43.34,0c0-27.69-0.01-55.39,0.01-83.08
		c0.01-12.95,1.42-26.07-1.19-38.87c-1.25-5.91-3.83-12.22-9.4-15.26c-6.18-3.23-13.73-2.15-19.96,0.37
		c-12.27,5.44-19.79,17.8-23.5,30.22c-3.7,11.5-3.19,23.69-3.89,35.6c-0.81,23.66-0.66,47.36,0.59,71.01
		c-14.94,1.39-29.97,0.13-44.93-0.09c0.08-54.19,0-108.39,0.04-162.58c13.35-5.05,27.29-9.29,41.7-9.31
		c-0.52,9.31-1.03,18.63-1.54,27.95C1098.12,311.46,1104.82,301.8,1114.6,295.59z"/>
	<g>
		<path fill="#222F7D" d="M1558.65,298.34c23.27-6.07,47.06-11.94,71.31-10.59c9.86,0.86,19.75,2.52,28.97,6.23
			c7.61,3.07,14.72,7.83,19.65,14.49c5.32,7.08,8.01,15.78,9.25,24.46c2.03,14.63,1.16,29.43,1.06,44.14
			c-0.39,10.66,0.7,21.29,0.87,31.94c0.51,18.37,0.57,36.74,0.53,55.12c-13.94,0.01-27.87,0.01-41.81,0
			c0.45-8.68,1.09-17.35,1.43-26.03c-1.93,5.75-6.28,10.23-10.88,13.98c-17.11,13.63-40.88,18.77-61.99,12.83
			c-17.26-4.88-29.9-22.03-29.66-39.91c-0.34-16.16,6.57-32.19,18.35-43.22c6.89-6.72,15.69-11,24.53-14.56
			c17.53-6.87,36.65-6.43,55.09-8.5c-0.27-8.57,0.01-17.84-4.64-25.42c-4.17-6.63-12.33-8.89-19.65-9.76
			c-11.78-1.49-23.84-0.17-35.09,3.6c-8.19,2.44-15.84,6.48-24.2,8.36C1560.7,323.11,1559.66,310.73,1558.65,298.34z
			 M1601.78,396.76c-5.7,2.87-11.04,7.63-12.44,14.1c-1.57,6.7,1.69,13.75,6.92,17.95c5.91,4.94,14.34,6.41,21.67,4.2
			c9.72-2.75,17.33-10.36,22.12-19.02c4.27-7.88,5.2-17.01,5.31-25.83C1630.48,386.96,1614.75,388.95,1601.78,396.76z"/>
	</g>
	<g>
		<path fill="#222F7D" d="M936.52,289.73c11.08-1.83,22.4-1.3,33.48,0.23c15.03,2.22,29.72,8.61,40.51,19.5
			c11.75,11.64,18.36,27.61,20.84,43.79c1.99,13.12,1.8,26.56-0.21,39.67c-3.16,19.42-11.66,38.41-26.16,52
			c-22.21,21.15-55.82,27.55-85.05,19.94c-15.03-3.94-29.88-11.76-38.82-24.86c-9.52-14.84-13.42-32.63-14.29-50.06
			c-0.82-22.17,2.69-45.34,14.91-64.29C893.66,306.46,914.19,293.08,936.52,289.73z M943.49,327.67
			c-9.69,1.78-18.57,7.59-23.7,16.04c-7.95,12.77-8.74,28.52-7.12,43.1c1.1,13.16,4.78,27.45,15.36,36.24
			c9.08,7.6,22.19,7.64,32.92,3.94c9.71-3.55,16.59-12.18,20.65-21.4c6.38-14.79,7.62-31.65,4.17-47.34
			c-2.47-10.72-7.72-21.64-17.37-27.6C961.07,325.91,951.75,325.54,943.49,327.67z"/>
	</g>
	<path fill="#222F7D" d="M542.97,294.14c22.25-7.78,46.32-4.51,68.99-0.54c-1.52,12.91-3.08,25.81-4.64,38.72
		c-12.45-1.64-24.33-8.58-37.17-6.05c-11.43,2.46-21.91,10.09-26.97,20.75c-7.63,15.65-8.6,34.06-4.65,50.86
		c2.62,10.23,7.6,20.94,17.17,26.34c10.25,4.93,22.22,5.1,33.23,3.09c6.65-1.12,12.97-4.89,19.86-3.95
		c1.21,12,2.23,24.02,3.17,36.05c-19.57,4.95-39.67,10.31-60.04,8.05c-15.26-1.76-30.71-7.62-41.24-19.17
		c-12.76-13.8-18.93-32.48-20.84-50.89c-2.37-24.59,2.2-50.26,14.96-71.59C513.42,311.31,526.94,299.64,542.97,294.14z"/>
	<path fill="#222F7D" d="M1485.77,292.08c15.46-1.41,31-1.63,46.52-1.54c0.01,57.84,0.01,115.68,0,173.52
		c-15.51,0.01-31.01,0.01-46.52,0C1485.76,406.73,1485.76,349.41,1485.77,292.08z"/>
</g>
<g>
	<path fill="#FFC902" d="M1901.66,77.87c16.42-0.99,32.89-1.44,49.34-0.88c6.42,0.5,13.7,0.67,18.78,5.22
		c5.08,5.12,6.4,12.55,8.97,19.04c3.6,11.31,9.07,21.9,13.11,33.05c1.25,3.65,2.2,8.56-1.3,11.29c-5.42,3.88-12.31,4.53-18.64,5.9
		c-22.31,3.82-44.68,7.19-66.9,11.47c-43.63,8.45-86.9,18.65-130.05,29.25c-43.99,11.16-87.8,23.37-130.34,39.29
		c-8.41,3.07-16.75,6.72-25.71,7.82c-4.45,0.55-9.47-0.13-12.65-3.58c-4-4.32-5.54-10.22-7.12-15.74
		c-3.61-14.15-7.73-28.19-10.83-42.47c-1.24-6.53-2.69-13.37-0.97-19.96c1.36-5.31,5.65-9.24,10.3-11.81
		c9.52-5.25,19.99-8.41,30.21-12c20.74-7.35,42.12-12.72,62.9-19.96c44.26-11.54,89.11-20.81,134.34-27.65
		C1850.49,82.39,1876.02,79.42,1901.66,77.87z"/>
</g>
<g>
	<path fill="#EA241D" d="M1951.51,168.62c6.15-0.9,12.81-2.35,18.78,0.17c5.7,2.72,8.28,8.95,10.69,14.4
		c5.24,13.38,9.36,27.17,14,40.77c1.82,6.14,4.28,12.43,3.55,18.94c-1.18,6.65-8.15,9.48-13.6,11.98
		c-16.04,6.38-32.34,12.08-48.39,18.44c-43.06,16.63-86.13,33.25-129.19,49.88c-9.33,3.56-18.61,7.58-28.52,9.13
		c-5.48,0.8-11.57,0.53-16.11-2.97c-5.01-3.86-7.37-9.97-9.51-15.69c-3.74-10.76-6.43-21.86-10.36-32.56
		c-5.57-12.26-10.1-24.97-14.55-37.68c-1.94-5.49-2.38-12.08,1.01-17.1c3.24-4.76,8.8-7.13,14.13-8.75
		c28.69-7.14,57.21-14.99,85.96-21.96c24.76-6,49.45-12.37,74.49-17.2C1919.76,175.19,1935.57,171.59,1951.51,168.62z"/>
</g>
</svg>
