<?xml version="1.0" encoding="utf-8"?>
<!-- Generator: Adobe Illustrator 23.0.6, SVG Export Plug-In . SVG Version: 6.00 Build 0)  -->
<svg version="1.1" id="Capa_1" xmlns="http://www.w3.org/2000/svg" xmlns:xlink="http://www.w3.org/1999/xlink" x="0px" y="0px"
	 viewBox="0 0 88 44" style="enable-background:new 0 0 88 44;" xml:space="preserve">
<style type="text/css">
	.st0{opacity:0.59;}
	.st1{fill:#7C7C7C;}
	.st2{opacity:0.59;fill:none;stroke:#7C7C7C;stroke-miterlimit:10;}
</style>
<g>
	<g class="st0">
		<g>
			<path class="st1" d="M20.5,22.2c0.6,0,1,0.4,1,1c0,0.3-0.2,0.6-0.4,0.8c0.3,0.1,0.6,0.2,0.9,0.2c1.4,0,2.5-1.1,2.5-2.5
				s-1.1-2.5-2.5-2.5s-2.5,1.1-2.5,2.5c0,0.3,0.1,0.7,0.2,0.9C19.9,22.4,20.2,22.2,20.5,22.2z"/>
			<path class="st1" d="M22,14.7c-8.7,0-13,8-13,8s1.9,2.6,6,4.5c1.9,0.9,4,2,7,2c3,0,5.1-1.1,7-2c4-1.9,6-4.5,6-4.5
				S30.7,14.7,22,14.7z M22,18.2c1.9,0,3.5,1.6,3.5,3.5s-1.6,3.5-3.5,3.5s-3.5-1.6-3.5-3.5S20.1,18.2,22,18.2z M28.1,25.4l-0.3,0.1
				c-1.7,0.8-3.4,1.7-5.8,1.7c-2.4,0-4.1-0.8-5.8-1.7l-0.3-0.2c-2-1-3.5-2.1-4.3-2.9c0.6-0.7,2.7-2.9,6-4c-0.7,0.9-1.1,2-1.1,3.3
				c0,3,2.5,5.5,5.5,5.5s5.5-2.5,5.5-5.5c0-1.2-0.4-2.3-1.1-3.3c3.4,1.2,5.4,3.4,6,4C31.6,23.4,30.1,24.5,28.1,25.4z"/>
		</g>
		<g>
			<path class="st1" d="M64.6,22.3c0.6,0,1,0.4,1,1c0,0.3-0.2,0.6-0.4,0.8c0.3,0.1,0.6,0.2,0.9,0.2c1.4,0,2.5-1.1,2.5-2.5
				s-1.1-2.5-2.5-2.5c-1.4,0-2.5,1.1-2.5,2.5c0,0.3,0.1,0.7,0.2,0.9C63.9,22.4,64.2,22.3,64.6,22.3z"/>
			<path class="st1" d="M66.1,14.8c-8.7,0-13,8-13,8s1.9,2.6,6,4.5c1.9,0.9,4,2,7,2c3,0,5.1-1.1,7-2c4-1.9,6-4.5,6-4.5
				S74.7,14.8,66.1,14.8z M66.1,18.3c1.9,0,3.5,1.6,3.5,3.5s-1.6,3.5-3.5,3.5s-3.5-1.6-3.5-3.5S64.1,18.3,66.1,18.3z M72.2,25.4
				l-0.3,0.1c-1.7,0.8-3.4,1.7-5.8,1.7c-2.4,0-4.1-0.8-5.8-1.7l-0.3-0.2c-2-1-3.5-2.1-4.3-2.9c0.6-0.7,2.7-2.9,6-4
				c-0.7,0.9-1.1,2-1.1,3.3c0,3,2.5,5.5,5.5,5.5c3,0,5.5-2.5,5.5-5.5c0-1.2-0.4-2.3-1.1-3.3c3.4,1.2,5.4,3.4,6,4
				C75.6,23.4,74.2,24.5,72.2,25.4z"/>
		</g>
	</g>
	<line class="st2" x1="7.3" y1="32.8" x2="36.6" y2="10.2"/>
</g>
</svg>
