<?xml version="1.0" encoding="UTF-8"?>
<svg width="100px" height="39px" viewBox="0 0 100 39" version="1.1" xmlns="http://www.w3.org/2000/svg" xmlns:xlink="http://www.w3.org/1999/xlink">
    <title>citrix-logo-black</title>
    <g id="citrix-logo-black" stroke="none" stroke-width="1" fill="none" fill-rule="evenodd">
        <path d="M11.4823362,10.3502348 C16.0385458,10.3502348 19.7471911,12.6171329 21.2205066,16.1260228 C21.4004266,16.4803764 21.4440837,16.7917515 21.4440837,17.1478593 C21.4440837,17.9473476 20.8183325,18.4810708 20.0144252,18.4810708 C19.389115,18.4810708 18.8542057,18.124963 18.5852077,17.414063 C17.4245472,14.5704632 14.7892483,12.9263152 11.4823362,12.9263152 C6.43311045,12.9263152 2.90482617,16.7483344 2.90482617,22.2579187 C2.90482617,27.7227702 6.38945339,31.5430352 11.4823362,31.5430352 C14.7892483,31.5430352 17.2900482,29.9436199 18.6306287,26.6119068 C18.8978628,25.9444239 19.3454579,25.5444605 20.0144252,25.5444605 C20.8183325,25.5444605 21.4440837,26.166772 21.4440837,26.9662604 C21.4440837,27.2776354 21.4004266,27.4999836 21.2659276,27.8995085 C19.8362691,31.720212 16.1730448,34.1638483 11.4823362,34.1638483 C4.69079684,34.1638483 8.81960838e-05,29.2765756 8.81960838e-05,22.2579187 C8.81960838e-05,15.2379461 4.73621782,10.3502348 11.4823362,10.3502348 Z M36.7630608,3.03413971 C37.6865875,3.03413971 38.1700503,3.61337391 38.1700503,4.63581004 L38.1700503,10.9139189 L43.0897396,10.9139189 C43.9685656,10.9139189 44.4967291,11.4023186 44.4967291,12.2022762 C44.4967291,13.003989 43.9685656,13.4928275 43.0897396,13.4928275 L38.1700503,13.4928275 L38.1691823,32.2091132 C38.1691823,33.1867903 37.6410187,33.8090282 36.719228,33.8090282 C35.7957012,33.8090282 35.3122385,33.1867903 35.3122385,32.2091132 L35.3113705,4.63581004 C35.3113705,3.61337391 35.839534,3.03413971 36.7630608,3.03413971 Z M55.8808901,10.0351759 C57.542942,10.0351759 58.7245672,10.3923701 59.5566732,10.9297069 C60.0379641,11.2427486 60.3015075,11.64542 60.3015075,12.1823152 C60.3015075,12.9872164 59.7316488,13.5682642 58.9012709,13.5682642 C58.5945236,13.5682642 58.2882084,13.479076 57.8496893,13.2552225 C57.193855,12.9417393 56.4939527,12.7633629 55.5741428,12.7633629 C52.55333,12.7633629 50.5845307,15.4478389 50.5845307,18.8475865 L50.5845307,32.0430223 C50.5845307,33.0704525 50.1036719,33.6532663 49.1838621,33.6532663 C48.2644843,33.6532663 47.7386935,33.0704525 47.7386935,32.0430223 L47.7386935,12.0039388 C47.7386935,10.975184 48.2644843,10.3923701 49.1838621,10.3923701 C50.1036719,10.3923701 50.5845307,10.975184 50.5845307,12.0039388 L50.5845307,12.5849865 C51.8106559,10.9297069 53.7349551,10.0351759 55.8808901,10.0351759 Z M64.8472501,10.5376884 C65.8218939,10.5376884 66.3316583,11.1164225 66.3316583,12.1391891 L66.3316583,32.053082 C66.3316583,33.0306555 65.7742609,33.6532663 64.8014491,33.6532663 C63.8268053,33.6532663 63.3165829,33.0306555 63.3165829,32.053082 L63.3165829,12.1391891 C63.3165829,11.1164225 63.8721482,10.5376884 64.8472501,10.5376884 Z M27.6608624,10.5376884 C28.6355063,10.5376884 29.1457286,11.1164225 29.1457286,12.1391891 L29.1457286,32.053082 C29.1457286,33.0306555 28.5883313,33.6532663 27.6155195,33.6532663 C26.6408757,33.6532663 26.1306533,33.0306555 26.1306533,32.053082 L26.1306533,12.1391891 C26.1306533,11.1164225 26.6862186,10.5376884 27.6608624,10.5376884 Z M89.8281482,10.5376884 C90.6650968,10.5376884 91.2365336,11.1602992 91.2365336,11.871541 C91.2365336,12.2712581 91.0609743,12.5827828 90.7528764,12.9390619 L82.9170212,22.006627 L91.0609743,31.2970859 C91.3695068,31.6520487 91.4572864,32.0083277 91.4572864,32.3194137 C91.4572864,33.0306555 90.885415,33.6532663 90.0932253,33.6532663 C89.6525889,33.6532663 89.2562767,33.4760043 88.9481788,33.0740935 L81.1557789,23.8735819 L73.3633789,33.0740935 C73.055281,33.4760043 72.6589689,33.6532663 72.2183324,33.6532663 C71.4257082,33.6532663 70.8542714,33.0306555 70.8542714,32.3194137 C70.8542714,32.0083277 70.942051,31.6520487 71.2505835,31.2970859 L79.3945366,22.006627 L71.5586814,12.9390619 C71.2505835,12.5827828 71.0750242,12.2712581 71.0750242,11.871541 C71.0750242,11.1602992 71.646461,10.5376884 72.4834096,10.5376884 C72.9227425,10.5376884 73.2312749,10.7167055 73.5841317,11.1168613 L81.1557789,20.0949179 L88.727426,11.1168613 C89.0802829,10.7167055 89.3888153,10.5376884 89.8281482,10.5376884 Z M97.885109,31.1407035 L98.6196115,32.952721 L98.740412,33.2647211 L98.7474661,33.2647211 L98.852395,32.952721 L99.6027691,31.1407035 L100,31.1407035 L100,33.6532663 L99.6702234,33.6532663 L99.6702234,32.0538744 L99.707698,31.5825171 L99.7002031,31.5825171 L99.6406846,31.772761 L98.8678257,33.6532663 L98.6125574,33.6532663 L97.8401395,31.772761 L97.7726851,31.5825171 L97.7656311,31.5825171 L97.8026648,32.0538744 L97.8026648,33.6532663 L97.4724473,33.6532663 L97.4724473,31.1407035 L97.885109,31.1407035 Z M97.0073212,31.1407035 L97.0073212,31.407045 L96.1674489,31.407045 L96.1674489,33.6532663 L95.8297365,33.6532663 L95.8297365,31.407045 L94.9748744,31.407045 L94.9748744,31.1407035 L97.0073212,31.1407035 Z M27.8896657,3 C29.1382024,3 30.1507538,4.0122122 30.1507538,5.26130653 C30.1507538,6.50996381 29.1382024,7.52261307 27.8896657,7.52261307 C26.6406921,7.52261307 25.6281407,6.50996381 25.6281407,5.26130653 C25.6281407,4.0122122 26.6406921,3 27.8896657,3 Z M81.1559974,3 C82.404971,3 83.4170854,4.0122122 83.4170854,5.26130653 C83.4170854,6.50996381 82.404971,7.52261307 81.1559974,7.52261307 C79.9074608,7.52261307 78.8944724,6.50996381 78.8944724,5.26130653 C78.8944724,4.0122122 79.9074608,3 81.1559974,3 Z" id="Combined-Shape" fill="#000000" fill-rule="nonzero"></path>
    </g>
</svg>