<?xml version="1.0" encoding="UTF-8"?>
<svg width="53px" height="50px" viewBox="0 0 53 50" version="1.1" xmlns="http://www.w3.org/2000/svg" xmlns:xlink="http://www.w3.org/1999/xlink">
    <!-- Generator: Sketch 45.2 (43514) - http://www.bohemiancoding.com/sketch -->
    <title>help</title>
    <desc>Created with Sketch.</desc>
    <defs></defs>
    <g id="Page-1" stroke="none" stroke-width="1" fill="none" fill-rule="evenodd">
        <g id="Group-18" transform="translate(-912.000000, -846.000000)">
            <g id="Group-14" transform="translate(912.000000, 846.000000)">
                <g id="help">
                    <path d="M0,8 L0,36 L0,36 C1.3527075e-16,37.1045695 0.8954305,38 2,38 L9,38 L9,38 C9.55228475,38 10,38.4477153 10,39 L10,50 L27.3511776,38.1736833 L27.3511776,38.1736833 C27.5172016,38.0605237 27.7134629,38 27.9143834,38 L46,38 L46,38 C47.1045695,38 48,37.1045695 48,36 L48,8 L48,8 C48,6.8954305 47.1045695,6 46,6 L2,6 L2,6 C0.8954305,6 -1.3527075e-16,6.8954305 0,8 Z" id="Fill-9" fill="#B2E2F5"></path>
                    <path d="M5,2 L5,30 L5,30 C5,31.1045695 5.8954305,32 7,32 L14,32 L14,32 C14.5522847,32 15,32.4477153 15,33 L15,44 L32.3511776,32.1736833 L32.3511776,32.1736833 C32.5172016,32.0605237 32.7134629,32 32.9143834,32 L51,32 L51,32 C52.1045695,32 53,31.1045695 53,30 L53,2 L53,2 C53,0.8954305 52.1045695,-2.02906125e-16 51,0 L7,0 L7,0 C5.8954305,2.02906125e-16 5,0.8954305 5,2 Z" id="Fill-9" fill="#FFFFFF"></path>
                    <path d="M5,2 L5,30 L5,30 C5,31.1045695 5.8954305,32 7,32 L14,32 L14,32 C14.5522847,32 15,32.4477153 15,33 L15,44 L32.3511776,32.1736833 L32.3511776,32.1736833 C32.5172016,32.0605237 32.7134629,32 32.9143834,32 L51,32 L51,32 C52.1045695,32 53,31.1045695 53,30 L53,2 L53,2 C53,0.8954305 52.1045695,-2.02906125e-16 51,0 L7,0 L7,0 C5.8954305,2.02906125e-16 5,0.8954305 5,2 Z M30.9696044,29.3928856 L18,39 L18,31 L18,31 C18,29.8954305 17.1045695,29 16,29 L9,29 L9,29 C8.44771525,29 8,28.5522847 8,28 L8,4 L8,4 C8,3.44771525 8.44771525,3 9,3 L49,3 L49,3 C49.5522847,3 50,3.44771525 50,4 L50,28 L50,28 C50,28.5522847 49.5522847,29 49,29 L32.1600595,29 L32.1600595,29 C31.7313908,29 31.3140642,29.1377302 30.9696044,29.3928856 Z" id="Fill-9" fill="#5F6166"></path>
                    <path d="M15,9 L43,9 L43,9 C43.5522847,9 44,9.44771525 44,10 L44,10 L44,10 C44,10.5522847 43.5522847,11 43,11 L15,11 L15,11 C14.4477153,11 14,10.5522847 14,10 L14,10 L14,10 C14,9.44771525 14.4477153,9 15,9 Z" id="Fill-10" fill="#23AAE2"></path>
                    <path d="M15,15 L43,15 L43,15 C43.5522847,15 44,15.4477153 44,16 L44,16 L44,16 C44,16.5522847 43.5522847,17 43,17 L15,17 L15,17 C14.4477153,17 14,16.5522847 14,16 L14,16 L14,16 C14,15.4477153 14.4477153,15 15,15 Z" id="Fill-10-Copy" fill="#23AAE2"></path>
                    <path d="M15,21 L27,21 L27,21 C27.5522847,21 28,21.4477153 28,22 L28,22 L28,22 C28,22.5522847 27.5522847,23 27,23 L15,23 L15,23 C14.4477153,23 14,22.5522847 14,22 L14,22 L14,22 C14,21.4477153 14.4477153,21 15,21 Z" id="Fill-11" fill="#23AAE2"></path>
                </g>
            </g>
        </g>
    </g>
</svg>