<?xml version="1.0" encoding="UTF-8"?>
<svg width="38px" height="50px" viewBox="0 0 38 50" version="1.1" xmlns="http://www.w3.org/2000/svg" xmlns:xlink="http://www.w3.org/1999/xlink">
    <!-- Generator: Sketch 45.2 (43514) - http://www.bohemiancoding.com/sketch -->
    <title>tips</title>
    <desc>Created with Sketch.</desc>
    <defs></defs>
    <g id="Page-1" stroke="none" stroke-width="1" fill="none" fill-rule="evenodd">
        <g id="Group-18" transform="translate(-141.000000, -846.000000)">
            <g id="Group-16" transform="translate(141.000000, 846.000000)">
                <g id="tips">
                    <path d="M16,6 C24.836,6 32,13.164 32,22 C32,28.712 27.862,34.452 22,36.826 L22,42 C22,43.1045695 21.1045695,44 20,44 L12,44 C10.8954305,44 10,43.1045695 10,42 L10,36.826 C4.138,34.452 0,28.712 0,22 C0,13.164 7.164,6 16,6 Z M17.1715729,50 L14.8284271,50 C14.2979941,50 13.7892863,49.7892863 13.4142136,49.4142136 L12.5857864,48.5857864 L12.5857864,48.5857864 C12.2107137,48.2107137 12,47.7020059 12,47.1715729 L12,47 C12,46.4477153 12.4477153,46 13,46 L19,46 C19.5522847,46 20,46.4477153 20,47 L20,47.1715729 C20,47.7020059 19.7892863,48.2107137 19.4142136,48.5857864 L18.5857864,49.4142136 C18.2107137,49.7892863 17.7020059,50 17.1715729,50 Z" id="Lightbulb" fill="#B2E2F5"></path>
                    <path d="M22,0 C30.836,0 38,7.164 38,16 C38,22.712 33.862,28.452 28,30.826 L28,36 C28,37.1045695 27.1045695,38 26,38 L18,38 C16.8954305,38 16,37.1045695 16,36 L16,30.826 C10.138,28.452 6,22.712 6,16 C6,7.164 13.164,0 22,0 Z M23.1715729,44 L20.8284271,44 C20.2979941,44 19.7892863,43.7892863 19.4142136,43.4142136 L18.5857864,42.5857864 L18.5857864,42.5857864 C18.2107137,42.2107137 18,41.7020059 18,41.1715729 L18,41 C18,40.4477153 18.4477153,40 19,40 L25,40 C25.5522847,40 26,40.4477153 26,41 L26,41.1715729 C26,41.7020059 25.7892863,42.2107137 25.4142136,42.5857864 L24.5857864,43.4142136 C24.2107137,43.7892863 23.7020059,44 23.1715729,44 Z" id="Lightbulb" fill="#FFFFFF"></path>
                    <path d="M22,0 C13.164,0 6,7.164 6,16 C6,22.712 10.138,28.452 16,30.826 L16,36 L16,36 C16,37.1045695 16.8954305,38 18,38 L26,38 L26,38 C27.1045695,38 28,37.1045695 28,36 L28,30.826 C33.862,28.452 38,22.712 38,16 C38,7.164 30.836,0 22,0 Z M20,32 L24,32 L24,32 C24.5522847,32 25,32.4477153 25,33 L25,34 L25,34 C25,34.5522847 24.5522847,35 24,35 L20,35 L20,35 C19.4477153,35 19,34.5522847 19,34 L19,33 L19,33 C19,32.4477153 19.4477153,32 20,32 Z M22,29 C14.8326667,29 9,23.1673333 9,16 C9,8.83266667 14.8326667,3 22,3 C29.1673333,3 35,8.83266667 35,16 C35,23.1673333 29.1673333,29 22,29 Z M23.1715729,44 L20.8284271,44 C20.2979941,44 19.7892863,43.7892863 19.4142136,43.4142136 L18.5857864,42.5857864 L18.5857864,42.5857864 C18.2107137,42.2107137 18,41.7020059 18,41.1715729 L18,41 C18,40.4477153 18.4477153,40 19,40 L25,40 C25.5522847,40 26,40.4477153 26,41 L26,41.1715729 C26,41.7020059 25.7892863,42.2107137 25.4142136,42.5857864 L24.5857864,43.4142136 C24.2107137,43.7892863 23.7020059,44 23.1715729,44 Z" id="Lightbulb" fill="#666766"></path>
                    <path d="M22,7.05492878 C21.6716661,7.01863331 21.3380091,7 21,7 C16.0294373,7 12,11.0294373 12,16 C12,20.9705627 16.0294373,25 21,25 C21.3380091,25 21.6716661,24.9813667 22,24.9450712 C17.5000495,24.4476269 14,20.6325537 14,16 C14,11.3674463 17.5000495,7.55237307 22,7.05492878 Z" id="reflection" fill="#D6EEF8"></path>
                </g>
            </g>
        </g>
    </g>
</svg>