<?xml version="1.0" standalone="no"?>
<!DOCTYPE svg PUBLIC "-//W3C//DTD SVG 20010904//EN"
 "http://www.w3.org/TR/2001/REC-SVG-20010904/DTD/svg10.dtd">
<svg version="1.0" xmlns="http://www.w3.org/2000/svg"
 width="1040.000000pt" height="1040.000000pt" viewBox="0 0 1040.000000 1040.000000"
 preserveAspectRatio="xMidYMid meet">
<metadata>
Created by potrace 1.11, written by Peter Selinger 2001-2013
</metadata>
<g transform="translate(0.000000,1040.000000) scale(0.100000,-0.100000)"
fill="#000000" stroke="none">
<path d="M4910 10374 c-641 -57 -1127 -187 -1635 -437 -421 -207 -747 -439
-1066 -757 -210 -209 -325 -347 -466 -560 -417 -627 -621 -1348 -600 -2114 9
-312 45 -558 122 -827 79 -274 228 -604 384 -849 l79 -125 -96 -95 c-388 -382
-541 -871 -448 -1430 87 -523 297 -1041 593 -1458 184 -259 477 -569 723 -766
650 -519 1455 -844 2320 -938 155 -16 653 -17 805 0 596 65 1126 225 1615 485
567 303 1027 705 1375 1202 388 554 599 1190 634 1907 35 700 -136 1364 -495
1924 -42 66 -78 124 -81 130 -2 6 45 60 105 120 315 317 477 725 459 1157 -20
458 -208 1051 -473 1488 -385 636 -926 1126 -1634 1479 -465 232 -938 374
-1470 441 -158 20 -625 34 -750 23z m613 -940 c1051 -127 1969 -744 2378
-1599 156 -326 263 -755 231 -926 -34 -185 -175 -336 -357 -384 -166 -43 -353
11 -481 139 -78 78 -110 146 -135 282 -36 200 -90 364 -172 514 -304 563 -891
941 -1617 1041 -137 19 -460 16 -585 -5 -578 -98 -1055 -416 -1343 -897 -287
-478 -324 -1096 -94 -1554 48 -96 156 -249 231 -328 213 -224 867 -717 1756
-1326 355 -243 433 -312 491 -434 49 -104 67 -200 61 -322 -6 -118 -31 -205
-84 -293 -116 -191 -290 -298 -500 -310 -121 -6 -197 9 -308 63 -210 101 -354
329 -355 564 l-1 46 -111 75 c-745 501 -1312 935 -1619 1240 -321 318 -553
739 -643 1166 -13 65 -29 163 -35 216 -14 121 -14 432 -1 558 61 587 286 1093
675 1523 345 382 827 680 1359 842 202 61 488 112 726 129 103 7 400 -3 533
-20z m-273 -2145 c99 -27 176 -69 250 -136 132 -120 195 -255 216 -464 l5 -56
227 -154 c703 -478 1163 -833 1475 -1139 380 -371 613 -819 694 -1332 27 -170
24 -554 -5 -743 -95 -612 -343 -1101 -773 -1520 -164 -160 -253 -232 -434
-350 -420 -276 -862 -433 -1390 -496 -131 -16 -502 -16 -635 0 -999 118 -1853
634 -2316 1402 -203 336 -358 833 -341 1096 4 71 11 97 41 158 66 133 190 232
335 265 70 16 188 8 266 -19 125 -44 245 -151 294 -262 11 -24 29 -98 41 -164
121 -683 663 -1243 1414 -1461 217 -62 408 -89 651 -88 394 0 710 88 1037 291
338 209 615 544 746 903 145 396 149 800 11 1155 -80 206 -215 396 -390 551
-323 285 -922 728 -1694 1254 -293 200 -378 274 -432 375 -103 194 -101 445 4
635 44 80 168 204 243 245 139 74 313 95 460 54z"/>
</g>
</svg>
