<?xml version="1.0" encoding="UTF-8"?>
<svg width="220px" height="108px" viewBox="0 0 220 108" version="1.1" xmlns="http://www.w3.org/2000/svg" xmlns:xlink="http://www.w3.org/1999/xlink">
    <!-- Generator: Sketch 48.2 (47327) - http://www.bohemiancoding.com/sketch -->
    <title>Logo</title>
    <desc>Created with Sketch.</desc>
    <defs></defs>
    <g id="Symbols" stroke="none" stroke-width="1" fill="none" fill-rule="evenodd">
        <g id="Logo">
            <g>
                <g id="Logos-SF-RS_ShareFile_Logo_Black_US" transform="translate(0.000000, 65.000000)" fill="#1A1919">
                    <path d="M22.2019438,2.33523077 C23.0315767,2.74774725 23.3860475,3.33793407 23.3860475,4.22061538 C23.3860475,5.28049451 22.6167603,6.106 21.6108423,6.106 C20.9574946,6.106 20.4847084,5.87068132 19.8332613,5.63583516 C17.1077322,4.63313187 15.0331749,4.16296703 12.0111447,4.16296703 C7.6287257,4.16296703 4.25174946,6.93103297 4.25174946,10.4664835 C4.25174946,14.0019341 6.14764579,15.7101209 9.6424622,17.4178352 L16.5142549,20.7760879 C20.3663931,22.721011 24.5126566,25.3142418 24.5126566,31.8526044 C24.5126566,38.803956 18.764622,42.8119341 11.9531749,42.8119341 C8.04354212,42.8119341 4.66656587,42.0445495 1.40790497,40.5716813 C0.517926566,40.1591648 0.103110151,39.5713407 0.103110151,38.6862967 C0.103110151,37.5687692 0.874773218,36.7437363 1.99900648,36.7437363 C2.53213823,36.7437363 2.88898488,36.8609231 3.77658747,37.2739121 C6.32345572,38.4514505 8.7524838,38.9816264 11.9531749,38.9816264 C16.5746004,38.9816264 20.3663931,36.5060549 20.3663931,31.9702637 C20.3663931,27.846989 17.9953348,26.0192527 14.2035421,24.1338681 L7.27140389,20.7184396 C3.06479482,18.6553846 0.103110151,15.7672967 0.103110151,10.5841429 C0.103110151,4.63313187 5.13935205,0.332186813 12.2501512,0.332186813 C16.159784,0.332186813 19.3001296,0.922373626 22.2019438,2.33523077" id="Fill-1"></path>
                    <path d="M35.0721814,2.33523077 L35.0721814,14.3549121 C37.3828942,12.9997033 40.2847084,12.1741978 42.5374514,12.1741978 C49.112743,12.1741978 52.9045356,16.004978 52.9045356,22.9563297 L52.9045356,40.8093626 C52.9045356,41.9869011 52.016933,42.8119341 50.890324,42.8119341 C49.7062203,42.8119341 48.8761123,41.9869011 48.8761123,40.8093626 L48.8761123,22.661 C48.8761123,18.1852198 46.3292441,15.8873187 42.122635,15.8873187 C39.7515767,15.8873187 37.3230238,16.77 35.0721814,18.4205385 L35.0721814,40.8093626 C35.0721814,41.9869011 34.2425486,42.8119341 33.0584449,42.8119341 C31.9318359,42.8119341 31.0442333,41.9869011 31.0442333,40.8093626 L31.0442333,2.33523077 C31.0442333,1.15721978 31.9318359,0.332186813 33.0584449,0.332186813 C34.2425486,0.332186813 35.0721814,1.15721978 35.0721814,2.33523077" id="Fill-2"></path>
                    <path d="M70.8133909,28.552 C66.4889417,28.552 63.348121,29.9676923 63.348121,33.8556484 C63.348121,38.0389341 66.4889417,39.0992857 70.9920518,39.0992857 C73.0637581,39.0992857 75.1383153,38.7463077 77.2123974,38.1565934 L77.2123974,28.552 L70.8133909,28.552 Z M81.2408207,20.9532857 L81.2408207,39.0416374 C81.2408207,40.1015165 80.707689,41.0442088 79.5231102,41.4567253 C77.1520518,42.2822308 74.0140821,42.8119341 70.9920518,42.8119341 C63.999568,42.8119341 59.3201728,40.2768242 59.3201728,33.798 C59.3201728,27.3168132 64.7113607,24.8417143 70.9317063,24.8417143 L77.2123974,24.8417143 L77.2123974,20.9532857 C77.2123974,17.948011 74.9016847,15.8873187 70.9317063,15.8873187 C68.7996544,15.8873187 66.9037581,16.2998352 65.0078618,17.2401648 C64.2960691,17.595033 63.7054428,17.8903626 62.9936501,17.8903626 C62.1036717,17.8903626 61.1557235,17.122978 61.1557235,16.0626264 C61.1557235,15.3547802 61.5125702,14.7674286 62.1036717,14.4149231 C64.1782289,13.2345495 67.2582289,12.1741978 70.7554212,12.1741978 C76.5614255,12.1741978 81.2408207,15.0622857 81.2408207,20.9532857 L81.2408207,20.9532857 Z" id="Fill-3"></path>
                    <path d="M101.694644,12.5871868 C102.700086,12.822033 103.353909,13.5294066 103.353909,14.5321099 C103.353909,15.5924615 102.524276,16.3574835 101.397667,16.3574835 C100.68635,16.3574835 99.5017711,15.944967 97.6662203,15.944967 C95.3555076,15.944967 93.5779266,17.595033 93.5779266,20.3630989 L93.5779266,40.8093626 C93.5779266,41.9869011 92.7482937,42.8119341 91.5641901,42.8119341 C90.437581,42.8119341 89.5499784,41.9869011 89.5499784,40.8093626 L89.5499784,20.2459121 C89.5499784,15.2976044 92.8086393,12.1741978 97.427689,12.1741978 C98.9087689,12.1741978 100.213564,12.2918571 101.694644,12.5871868" id="Fill-4"></path>
                    <path d="M110.768337,22.8386703 L110.768337,25.1942198 L124.632613,25.1942198 L124.632613,22.9563297 C124.632613,18.5953736 122.261555,15.8873187 117.700475,15.8873187 C113.137019,15.8873187 110.768337,18.5953736 110.768337,22.8386703 Z M128.660562,23.0163407 L128.660562,26.4317692 C128.660562,27.6697912 127.712613,28.964989 126.053348,28.964989 L110.768337,28.964989 L110.768337,32.1479341 C110.768337,36.0358901 113.018704,39.0992857 117.700475,39.0992857 C120.307689,39.0992857 122.321901,38.5114615 124.275767,37.7440769 C124.926739,37.5087582 125.28406,37.3910989 125.698877,37.3910989 C126.764665,37.3910989 127.594773,38.2166044 127.594773,39.2164725 C127.594773,39.9843297 127.237451,40.5716813 126.468164,40.927022 C123.86095,42.1045604 120.187473,42.8119341 117.700475,42.8119341 C110.768337,42.8119341 106.740389,38.2737802 106.740389,31.9702637 L106.740389,23.0163407 C106.740389,16.4751429 111.004968,12.1741978 117.700475,12.1741978 C124.453952,12.1741978 128.660562,16.5351538 128.660562,23.0163407 L128.660562,23.0163407 Z" id="Fill-5"></path>
                    <path d="M156.64,0.922373626 C157.824104,0.922373626 158.654212,1.80505495 158.654212,2.86540659 C158.654212,3.9852967 157.824104,4.86797802 156.64,4.86797802 L140.585702,4.86797802 L140.585702,18.8330549 L155.870713,18.8330549 C157.054816,18.8330549 157.884449,19.6580879 157.884449,20.7760879 C157.884449,21.895978 157.054816,22.7786593 155.870713,22.7786593 L140.585702,22.7786593 L140.585702,40.7493516 C140.585702,41.9869011 139.695724,42.8119341 138.511145,42.8119341 C137.327041,42.8119341 136.437063,41.9869011 136.437063,40.7493516 L136.437063,3.45512088 C136.437063,2.0399011 137.623542,0.922373626 139.044276,0.922373626 L156.64,0.922373626" id="Fill-6"></path>
                    <path d="M167.732657,14.1772418 L167.732657,40.8093626 C167.732657,41.9869011 166.842678,42.8119341 165.71892,42.8119341 C164.531965,42.8119341 163.704708,41.9869011 163.704708,40.8093626 L163.704708,14.1772418 C163.704708,12.9997033 164.531965,12.1741978 165.71892,12.1741978 C166.842678,12.1741978 167.732657,12.9997033 167.732657,14.1772418 Z M168.265788,4.16296703 C168.265788,5.51817582 167.081685,6.69571429 165.71892,6.69571429 C164.29581,6.69571429 163.111231,5.51817582 163.111231,4.16296703 C163.111231,2.74774725 164.29581,1.62738462 165.71892,1.62738462 C167.081685,1.62738462 168.265788,2.74774725 168.265788,4.16296703 L168.265788,4.16296703 Z" id="Fill-7"></path>
                    <path d="M180.477927,2.33523077 L180.477927,40.8093626 C180.477927,41.9869011 179.648294,42.8119341 178.463715,42.8119341 C177.337581,42.8119341 176.449978,41.9869011 176.449978,40.8093626 L176.449978,2.33523077 C176.449978,1.15721978 177.337581,0.332186813 178.463715,0.332186813 C179.648294,0.332186813 180.477927,1.15721978 180.477927,2.33523077" id="Fill-8"></path>
                    <path d="M191.975896,22.8386703 L191.975896,25.1942198 L205.840173,25.1942198 L205.840173,22.9563297 C205.840173,18.5953736 203.469114,15.8873187 198.908035,15.8873187 C194.344579,15.8873187 191.975896,18.5953736 191.975896,22.8386703 Z M209.868121,23.0163407 L209.868121,26.4317692 C209.868121,27.6697912 208.920173,28.964989 207.260907,28.964989 L191.975896,28.964989 L191.975896,32.1479341 C191.975896,36.0358901 194.226263,39.0992857 198.908035,39.0992857 C201.515248,39.0992857 203.52946,38.5114615 205.483326,37.7440769 C206.134298,37.5087582 206.49162,37.3910989 206.906436,37.3910989 C207.972225,37.3910989 208.801857,38.2166044 208.801857,39.2164725 C208.801857,39.9843297 208.445011,40.5716813 207.675724,40.927022 C205.06851,42.1045604 201.395032,42.8119341 198.908035,42.8119341 C191.975896,42.8119341 187.947948,38.2737802 187.947948,31.9702637 L187.947948,23.0163407 C187.947948,16.4751429 192.212527,12.1741978 198.908035,12.1741978 C205.661512,12.1741978 209.868121,16.5351538 209.868121,23.0163407 L209.868121,23.0163407 Z" id="Fill-9"></path>
                    <path d="M214.915767,2.91502198 L214.915767,4.30614286 L215.766782,4.30614286 C216.174946,4.30614286 216.442937,4.05097802 216.442937,3.63373626 C216.442937,3.23964835 216.232916,2.91502198 215.755378,2.91502198 L214.915767,2.91502198 Z M215.755378,2.35838462 C216.52419,2.35838462 217.025486,2.8569011 217.025486,3.62192308 C217.025486,4.21352747 216.652484,4.61895604 216.151663,4.7351978 L216.990799,6.23027473 C217.025486,6.29973626 217.048769,6.35785714 217.048769,6.43913187 C217.048769,6.60120879 216.92095,6.74013187 216.746091,6.74013187 C216.629201,6.74013187 216.536069,6.68248352 216.477624,6.56671429 L215.55676,4.86230769 L214.915767,4.86230769 L214.915767,6.43913187 C214.915767,6.60120879 214.787473,6.74013187 214.612613,6.74013187 C214.438229,6.74013187 214.30946,6.60120879 214.30946,6.43913187 L214.30946,2.71797802 C214.30946,2.52093407 214.461037,2.35838462 214.671058,2.35838462 L215.755378,2.35838462 Z M211.966436,4.53815385 C211.966436,6.49678022 213.552052,8.09675824 215.533477,8.09675824 C217.515378,8.09675824 219.112397,6.49678022 219.112397,4.53815385 C219.112397,2.57858242 217.515378,0.99089011 215.533477,0.99089011 C213.552052,0.99089011 211.966436,2.57858242 211.966436,4.53815385 Z M219.741987,4.53815385 C219.741987,6.84456044 217.853218,8.72285714 215.533477,8.72285714 C213.225616,8.72285714 211.337322,6.84456044 211.337322,4.53815385 C211.337322,2.24261538 213.225616,0.364791209 215.533477,0.364791209 C217.853218,0.364791209 219.741987,2.24261538 219.741987,4.53815385 L219.741987,4.53815385 Z" id="Fill-10"></path>
                </g>
                <g id="Page-1" transform="translate(83.000000, 0.000000)">
                    <path d="M39.8539679,24.9146389 C40.3191071,24.5336681 40.7497132,24.1031286 41.1331006,23.620188 C42.5031468,21.8867001 43.1226276,19.7283378 42.8682106,17.5430668 L42.8569345,17.4418051 C41.3360704,6.11181924 30.6463271,0 21.3604583,0 C10.8595896,0 0,7.5202781 0,20.1078924 C0,23.7207416 1.05783918,27.0715849 3.14462255,30.0832368 C2.67807388,30.4642075 2.24887731,30.8926226 1.8668994,31.3769795 C0.494738912,33.1125917 -0.121218081,35.2688297 0.130379913,37.4526844 L0.143065526,37.5560706 C1.66463435,48.8853483 12.3515587,55 21.6395417,55 C32.1404104,55 43,47.4761813 43,34.888567 C43,31.2757178 41.9414561,27.927707 39.8539679,24.9146389" id="Fill-1" fill="#2071C5"></path>
                    <path d="M8.46303734,27.4257315 C6.59764797,25.06059 5.69117647,22.5162265 5.69117647,19.6494106 C5.69117647,10.4069957 13.6233337,4.88416988 21.2932591,4.88416988 C28.139635,4.88416988 36.0009187,9.37573524 37.0824477,17.6926599 C37.1547386,18.3382995 36.9740113,18.9817355 36.574285,19.5039764 C36.1384132,20.0695537 35.5055133,20.4265285 34.7981962,20.5087943 C34.7230703,20.5154049 34.6493619,20.5190775 34.5763623,20.5190775 L34.5749448,20.5190775 C33.199291,20.5190775 32.0008209,19.5098525 31.9008893,18.2472195 C31.1928635,13.4691929 26.4634777,9.86639193 20.9013289,9.86639193 C15.3838303,9.86639193 10.8932882,14.1691867 10.8932882,19.4584364 C10.8932882,21.2991335 11.4510623,22.9018474 12.597086,24.3576582 C14.13504,26.3070636 23.4237152,32.5541222 23.5172682,32.6158216 L23.5704233,32.6496093 C24.9049704,33.484754 25.1842118,34.6981745 25.1842118,35.5693104 C25.1842118,37.4423262 23.6944518,38.9671815 21.8609555,38.9671815 C20.0288766,38.9671815 18.5362817,37.4423262 18.5384079,35.547275 L18.5384079,35.3768672 L18.4002046,35.2857873 C16.0422447,33.7183301 10.3511062,29.8187846 8.46303734,27.4257315 Z M34.325011,27.7885903 C36.1902321,30.1538338 37.0980392,32.6968378 37.0980392,35.5615737 C37.0980392,44.8043869 29.1651801,50.3281853 21.496655,50.3281853 C14.6516053,50.3281853 6.7903219,45.8356918 5.70676449,37.5191432 C5.63448008,36.8749449 5.8151911,36.2322157 6.21559001,35.7106868 C6.65071378,35.143616 7.28568268,34.7851568 7.99293598,34.7014183 C8.06663772,34.6962765 8.14033947,34.6926038 8.21404122,34.6926038 C9.59169694,34.6926038 10.7907677,35.7026068 10.8885642,36.9660288 C11.5986522,41.7435268 16.3269027,45.3472176 21.8871326,45.3472176 C27.4055509,45.3472176 31.895688,41.0435029 31.895688,35.7540251 C31.895688,33.9125141 31.3379642,32.3089966 30.1899178,30.8553268 C28.6450158,28.8992263 19.3642651,22.6585094 19.2693032,22.5946037 L19.2168616,22.5622837 C17.8859781,21.7234302 17.6067619,20.5114266 17.6067619,19.6409876 C17.6067619,17.7686256 19.0963876,16.2451737 20.9290099,16.2451737 C22.7609235,16.2451737 24.2512578,17.7686256 24.2498405,19.6644931 L24.2498405,19.8356427 L24.3873226,19.9259921 C27.3183844,21.8718088 32.5065621,25.4806415 34.325011,27.7885903 Z" id="Combined-Shape" fill="#FFFFFF"></path>
                </g>
            </g>
        </g>
    </g>
</svg>