<?xml version="1.0" encoding="UTF-8"?>
<svg width="16px" height="16px" viewBox="0 0 16 16" version="1.1" xmlns="http://www.w3.org/2000/svg" xmlns:xlink="http://www.w3.org/1999/xlink">
    <title>tooltip</title>
    <defs></defs>
    <g id="Working" stroke="none" stroke-width="1" fill="none" fill-rule="evenodd">
        <g id="tooltip" fill="#999999" fill-rule="nonzero">
            <path d="M8,16 C3.581722,16 0,12.418278 0,8 C0,3.581722 3.581722,0 8,0 C12.418278,0 16,3.581722 16,8 C16,12.418278 12.418278,16 8,16 Z M8,15 C11.8659932,15 15,11.8659932 15,8 C15,4.13400675 11.8659932,1 8,1 C4.13400675,1 1,4.13400675 1,8 C1,11.8659932 4.13400675,15 8,15 Z M5.76367188,6.43164062 C5.78808594,5.23046875 6.63769531,4.390625 8.13671875,4.390625 C9.53320312,4.390625 10.4560547,5.16699219 10.4560547,6.28027344 C10.4560547,7.01757812 10.0996094,7.53027344 9.41113281,7.93554687 C8.76171875,8.31152344 8.58105469,8.55078125 8.58105469,9.02929688 L8.58105469,9.28808594 L7.28710938,9.28808594 L7.27734375,9.00488281 C7.21386719,8.23828125 7.48242188,7.79882812 8.15625,7.40332031 C8.78613281,7.02734375 8.9765625,6.78808594 8.9765625,6.32421875 C8.9765625,5.86035156 8.60546875,5.5234375 8.04882812,5.5234375 C7.48730469,5.5234375 7.11621094,5.87988281 7.08691406,6.43164062 L5.76367188,6.43164062 Z M7.95117188,11.6220703 C7.51171875,11.6220703 7.15527344,11.2851562 7.15527344,10.8554688 C7.15527344,10.4257812 7.51171875,10.0888672 7.95117188,10.0888672 C8.39550781,10.0888672 8.75195312,10.4257812 8.75195312,10.8554688 C8.75195312,11.2851562 8.39550781,11.6220703 7.95117188,11.6220703 Z" id="Oval-4-Copy"></path>
        </g>
    </g>
</svg>
