<svg height="56" viewBox="0 0 160 56" width="160" xmlns="http://www.w3.org/2000/svg"><g fill="none" fill-rule="evenodd"><path d="m0 0h160v56h-160z" fill="#fc0"/><path d="m114.550917 41.2599833 1.699833-8.029h-98.4935l-1.6975 8.029z" fill="#fff"/><path d="m116.574383 19.1627333h-10.126666l-3.577 16.744h10.2375l.6545-3.038h-6.617334l.8995-4.1626666h5.737667l.6545-3.0158334h-5.737667l.740834-3.4895h6.482z" fill="#000"/><path d="m104.985183 19.1627333h-12.6944997l-.6743333 3.1056667h4.5465l-2.9236667 13.6383333h3.6201667l2.926-13.6383333h4.5255z" fill="#000"/><g transform="translate(19.666667 8.4035)"><g fill="#000"><path d="m54.755 19.131c-.5856667 2.7008333-1.6893333 5.5148333-4.7495 5.5148333-2.9481667 0-3.353-2.7685-2.7451667-5.5148333.5845-2.6985 1.687-5.5136667 4.7483334-5.5136667 2.9493333 0 3.3541666 2.7685 2.7463333 5.5136667m-2.4313333-8.5516667c-5.8065 0-8.0115 3.9386667-8.9343334 8.5516667-.9461666 4.613 1.0126667 8.5528333 6.3011667 8.5528333 5.8065 0 8.0115-3.9398333 8.9355-8.5528333.945-4.613-1.0138333-8.5516667-6.3023333-8.5516667"/><path d="m38.95495 16.6552167c-.2251667 1.3953333-1.1701667 2.2516666-2.3858333 2.5445-.2928334.0665-.833.112-1.1468334.112h-1.463l1.1701667-5.4693334h1.5738333c.4515 0 .7886667.0455 1.0605.1353334.8995.2928333 1.4385 1.1701666 1.1911667 2.6775m-.5401667-5.7831667c-.4281666-.0676667-1.0348333-.1131667-1.6426666-.1131667h-4.5686667l-3.6015 16.744h3.6015l1.1025-5.1088333h2.093c1.1025 0 1.8235-.112 2.52-.315 2.59-.7863333 4.256-2.9481667 4.6375-5.2441667.5623333-3.1266666-1.0126667-5.446-4.1416667-5.9628333"/><path d="m15.0547333 20.9550833 3.6901667-6.6838333.9461667 6.6838333zm6.3921667-10.1955h-4.3225l-7.8995 13.706h-4.86033333l2.947-13.706h-3.6225l-3.6015 16.7428334h11.38900003l1.9121666-3.5093334h6.7515l.4958334 3.5093334h3.6236666z"/><path d="m65.7632 13.9424833c.5646667-.0676666 1.085-.0676666 1.9413333-.0676666h2.7323334l.6766666-3.115h-3.0485c-.8796666 0-2.0311666 0-3.0216666.1143333-2.3695.2706667-4.5826667 1.9635-4.5826667 4.9186667 0 2.03 1.1526667 2.9785 2.3496667 3.8126666l1.939 1.3545c.5856666.4048334.9706666.7431667 1.1736666 1.036.203.2928334.2706667.497.2706667.791 0 .3581667-.098.651-.2986667.8971667-.5191666.5623333-1.4443333.7268333-2.2715.8038333-2.1011666.2006667-4.3995-.6253333-4.3995-.6253333l-.0256666.0746667-1.0838334 3.0671666c1.3078334.476 3.2258334.6766667 4.9186667.6766667 4.5371667-.0198333 7.1761667-2.0066667 7.1761667-5.2336667 0-1.624-1.1281667-2.7066666-2.2796667-3.5641666l-2.121-1.5785c-.8796667-.6556667-1.4653333-1.106-1.4653333-1.8503334 0-.7898333.497-1.3988333 1.4198333-1.512"/></g><path d="m113.89275 10.7546833s2.135-10.06366663 2.146667-10.11849997h-13.598667c-.009333.035-2.828 13.19733337-2.8396667 13.25099997h3.3658337c.009333-.0361666 2.168833-10.1173333 2.168833-10.1173333h6.868167s-2.156 10.0636667-2.167667 10.1173333h10.2025l-1.356833 6.3303334h-10.148834c-.007.0361666-2.025333 9.464-2.025333 9.464h-7.6883333c-.007.0338333-.658 3.122-.6673334 3.1756666h11.0529997c.009334-.035 2.039334-9.485 2.039334-9.485h10.109166c.005834-.0361666 2.695-12.5638333 2.706667-12.6175z" fill="#f00"/></g></g></svg>