<svg width="100" height="76" viewBox="0 0 100 76" fill="none" xmlns="http://www.w3.org/2000/svg">
<path d="M43.0892 59.1255C43.0892 59.1255 43.3452 58.8696 43.0892 58.8696C31.3153 33.2741 15.1902 13.5656 15.1902 13.5656C15.1902 13.5656 6.48771 21.7561 6.99962 30.2026C7.25557 36.6015 12.1187 40.1849 12.1187 40.1849C19.7974 47.6076 38.2261 57.0779 42.5773 59.1255H43.0892ZM40.0178 65.5244C40.0178 65.2684 39.5059 65.2684 39.5059 65.2684L8.7913 66.2923C12.1187 72.1792 17.7497 76.7864 23.6367 75.5066C27.7319 74.4828 36.9463 68.0839 39.7618 66.0363C40.2737 65.5244 40.0178 65.5244 40.0178 65.5244ZM40.5297 62.7089C40.7856 62.4529 40.5297 62.197 40.5297 62.197C26.9641 52.9826 0.856708 39.1611 0.856708 39.1611C-1.44688 46.5837 1.62457 52.4707 1.62457 52.4707C4.95198 59.6374 11.3508 61.6851 11.3508 61.6851C14.1664 62.9648 17.2378 62.9648 17.2378 62.9648H40.2737C40.5297 62.9648 40.5297 62.7089 40.5297 62.7089ZM42.5773 0.255955C41.2975 0.255955 37.7142 1.27977 37.7142 1.27977C29.5236 3.32741 27.7319 10.7501 27.7319 10.7501C26.1962 15.3573 27.7319 20.4764 27.7319 20.4764C30.5474 32.5062 43.8571 52.4707 46.6726 56.566L46.9285 56.8219C47.1845 56.8219 47.1845 56.566 47.1845 56.566C51.7917 11.7739 42.5773 0.255955 42.5773 0.255955ZM52.8155 56.566C53.0715 56.566 53.3274 56.31 53.3274 56.31C56.3989 51.9588 69.4526 32.2503 72.2681 20.2204C72.2681 20.2204 73.8038 14.3335 72.2681 10.4941C72.2681 10.4941 70.2204 3.07146 62.0299 1.02382C62.0299 1.02382 59.7263 0.511909 57.1667 0C57.1667 0 47.9524 11.7739 52.5595 56.0541C52.5595 56.566 52.8155 56.566 52.8155 56.566ZM59.9822 65.2684C59.9822 65.2684 59.7263 65.2684 59.7263 65.5244V66.0363C62.7977 68.0839 71.5002 74.4828 75.8514 75.5066C75.8514 75.5066 83.786 78.3221 90.6968 66.2923L59.9822 65.2684ZM99.1433 38.9051C99.1433 38.9051 73.0359 52.9826 59.4703 62.197C59.4703 62.197 59.2144 62.4529 59.2144 62.7089C59.2144 62.7089 59.2144 62.9648 59.4703 62.9648H83.0182C83.0182 62.9648 85.3217 62.9648 88.3932 61.6851C88.3932 61.6851 94.7921 59.6374 98.3754 52.2147C98.3754 51.9588 101.447 46.0718 99.1433 38.9051ZM56.9108 59.1255C56.9108 59.1255 57.1667 59.3815 57.4227 59.1255C61.7739 56.8219 80.2027 47.6076 87.8813 40.1849C87.8813 40.1849 92.7444 36.3456 93.0004 30.2026C93.5123 21.5002 84.8098 13.5656 84.8098 13.5656C84.8098 13.5656 68.6847 32.7622 56.9108 58.6136C56.9108 58.6136 56.6548 58.8696 56.9108 59.1255Z" fill="white"/>
</svg>
