<svg xmlns="http://www.w3.org/2000/svg" width="194.54" height="73.88" viewBox="0 0 194.54 73.88"><defs><clipPath id="clip-path" transform="translate(-.16)"><path fill="none" d="M0 0h194.7v73.89H0z"/></clipPath></defs><g clip-path="url(#clip-path)"><path fill="#bad8eb" d="M161.3 0h-30.52c-11 0-20.63 5.91-26.69 15a21.2 21.2 0 0 1-1.79 41c5.82 10.74 16.38 17.95 28.48 17.95h30.53c18.35 0 33.24-16.54 33.24-36.95S179.66 0 161.3 0M76.58 35.23a21.2 21.2 0 0 1 14.49-20.1C85.02 6 75.29 0 64.3 0h-31C14.84 0 0 16.55 0 36.93s14.84 36.95 33.25 36.95h31c12.13 0 22.73-7.26 28.53-18.06a21.19 21.19 0 0 1-16.2-20.59"/><path fill="#fff" d="M37.69 59.21z"/><path fill="#003764" d="M41.73 13a4.65 4.65 0 1 0-4.71-4.64A4.68 4.68 0 0 0 41.73 13M54.01 45.2a2.71 2.71 0 0 0-1.83 2v.1a13.75 13.75 0 0 1-8.93 8.7 13 13 0 0 1-5.55.47 14.56 14.56 0 0 1-7.4-3.56l-.14-.14c-.2-.19-.39-.4-.58-.6s-.34-.38-.51-.59l-.23-.21a14.05 14.05 0 0 1-2.49-4.77 14.46 14.46 0 0 1-.47-6.13 14 14 0 0 1 7.05-10.35l.09-.06a2.78 2.78 0 0 0-.61-5.29 2.58 2.58 0 0 0-1.57.23 19.59 19.59 0 0 0-10.38 14.85 20.1 20.1 0 0 0 .73 8.87 18.88 18.88 0 0 0 23.44 12.77A19.29 19.29 0 0 0 57.3 48.65a2.82 2.82 0 0 0 0-1.62 2.65 2.65 0 0 0-3.32-1.86"/><path fill="#003764" d="M76.03 50.41a2.1 2.1 0 0 0-2.83-.77l-3.1 1.74-7.87-11.86a2.82 2.82 0 0 0-2.39-1.45H45.05v-4.7H55.3a3 3 0 0 0 0-5.88H45.05V21.4a3.32 3.32 0 0 0-6.64 0v19.31a3.41 3.41 0 0 0 3 3.33 6.48 6.48 0 0 0 .68 0h17.19l7.46 11.27a2.5 2.5 0 0 0 1.53 1 2.21 2.21 0 0 0 .47.06h.1a2 2 0 0 0 .82-.14h.28l5.35-3a2 2 0 0 0 .78-2.79M169.29 63.74a.5.5 0 0 1-.5.5h-41.14a.51.51 0 0 1-.5-.5v-15a.51.51 0 0 1 .5-.5h41.14a.5.5 0 0 1 .5.5v15m-26.74-8.37h4.06a.44.44 0 0 0 .43-.44v-4.06a.44.44 0 0 0-.43-.44h-4.06a.44.44 0 0 0-.44.44v4.06a.44.44 0 0 0 .44.44m-7.71 1.46h-4.06a.43.43 0 0 0-.44.44v4.06a.43.43 0 0 0 .44.43h4.06a.44.44 0 0 0 .44-.43v-4.06a.44.44 0 0 0-.44-.44m0-1.46h4.05a.44.44 0 0 0 .45-.44v-4.06a.44.44 0 0 0-.45-.44h-4.05a.44.44 0 0 0-.44.44v4.06a.44.44 0 0 0 .44.44m15.38 0h4.06a.44.44 0 0 0 .43-.44v-4.06a.43.43 0 0 0-.43-.44h-4.04a.43.43 0 0 0-.43.44v4.06a.43.43 0 0 0 .43.44m7.69 0h4.06a.44.44 0 0 0 .43-.44v-4.06a.43.43 0 0 0-.43-.44h-4.06a.43.43 0 0 0-.43.44v4.06a.43.43 0 0 0 .43.44m0 1.46h-4.09a.44.44 0 0 0-.43.44v4.06a.43.43 0 0 0 .43.43h4.06a.43.43 0 0 0 .44-.43v-4.06a.44.44 0 0 0-.44-.44m-15.39 0h-4.06a.43.43 0 0 0-.43.44v4.06a.43.43 0 0 0 .43.43h4.06a.44.44 0 0 0 .44-.43v-4.06a.44.44 0 0 0-.44-.44m23.08 0h-4.07a.44.44 0 0 0-.43.44v4.06a.43.43 0 0 0 .43.43h4.07a.43.43 0 0 0 .44-.43v-4.06a.44.44 0 0 0-.44-.44m-15.39 0h-4.06a.44.44 0 0 0-.44.44v4.06a.43.43 0 0 0 .44.43h4.06a.44.44 0 0 0 .44-.43v-4.06a.44.44 0 0 0-.44-.44m-22.06-11.16a.41.41 0 0 0 .37.44h39.4a.41.41 0 0 0 .37-.44V8.58a.41.41 0 0 0-.37-.44h-39.4a.41.41 0 0 0-.37.44v37.09zm5.34-6.58v-25a.35.35 0 0 1 .34-.36h29a.34.34 0 0 1 .33.36v25a.34.34 0 0 1-.33.36h-28.98a.35.35 0 0 1-.34-.36"/><path fill="#b6e0f7" d="M94.19 49.6a1.18 1.18 0 0 1-1.68 0l-3.09-3.09a1.18 1.18 0 0 1 0-1.68L99.31 35l-9.89-9.89a1.18 1.18 0 0 1 0-1.68l3.09-3.09a1.18 1.18 0 0 1 1.68 0l13.82 13.82a1.18 1.18 0 0 1 0 1.67z"/><path fill="#003764" d="M185.67 73.16v-4.05h-1.45v-.83h3.88v.83h-1.44v4.05h-.99zM188.72 73.16v-4.88h1.48l.89 3.33.87-3.33h1.48v4.88h-.91v-3.84l-.97 3.84h-.95l-.97-3.84v3.84h-.92z"/></g></svg>