<svg xmlns="http://www.w3.org/2000/svg" viewBox="0 0 24 13.4"><g fill="#fff"><path d="M.18 1L1 .18a.61.61 0 0 1 .87 0L12 10.24 22.11.18a.62.62 0 0 1 .87 0l.85.84a.61.61 0 0 1 .18.43.61.61 0 0 1-.18.43L13.31 12.35l-.88.88a.6.6 0 0 1-.43.18.61.61 0 0 1-.44-.18L.18 1.88A.61.61 0 0 1 0 1.45.6.6 0 0 1 .18 1z"/><path d="M11.56 13.23a.61.61 0 0 0 .44.18.6.6 0 0 0 .43-.18l.88-.88L23.82 1.88a.61.61 0 0 0 .18-.43.61.61 0 0 0-.18-.45L23 .18a.62.62 0 0 0-.87 0L12 10.24 1.89.18a.61.61 0 0 0-.89 0L.18 1a.6.6 0 0 0-.18.45.61.61 0 0 0 .18.43z"/></g></svg>