<svg xmlns="http://www.w3.org/2000/svg" width="36.1" height="32.8" viewBox="0 0 36.1 32.8"><path d="M30.7 3a17.4 17.4 0 0 0-3.3-1.8 20.6 20.6 0 0 0-7-1.2A21.26 21.26 0 0 0 7.6 4.1a17.51 17.51 0 0 0-4.8 5 18.45 18.45 0 0 0-2.6 7A14.64 14.64 0 0 0 0 19a14.85 14.85 0 0 0 1.1 5.7 12.46 12.46 0 0 0 3.2 4.4 14.2 14.2 0 0 0 5 2.7c.7.2 1.4.4 2.2.6a17.83 17.83 0 0 0 4.1.4 23.43 23.43 0 0 0 11.8-3.4 18.19 18.19 0 0 0 8.4-12.7 17.33 17.33 0 0 0 .3-3.2 13 13 0 0 0-1.5-6.3A15.51 15.51 0 0 0 30.7 3zm-6.9 6.2c0 .2-.2.5-.4.5h-1.9c-1.3 0-1.6.5-1.6 1.5v2.1h3.3a.35.35 0 0 1 .4.4v3.6c0 .2-.2.5-.4.5h-3.3V27a.43.43 0 0 1-.4.4h-3.7a.43.43 0 0 1-.4-.4v-9.2h-2.8a.46.46 0 0 1-.4-.5v-3.6c0-.2.2-.5.4-.5h2.8v-2.5c0-3.3 2-5.4 5.2-5.4h2.8a.46.46 0 0 1 .4.5z" fill="#fff"/></svg>