<svg xmlns="http://www.w3.org/2000/svg" width="26.087" height="26.079" viewBox="0 0 26.087 26.079">
  <path id="help-center" d="M149.689,292.083a4.013,4.013,0,0,0,4.011-4.015V286.41l.375-.1a4.008,4.008,0,0,0,1-7.354l-.25-.144v-.9a10.785,10.785,0,0,0-21.57,0v.9l-.25.144a4.011,4.011,0,0,0,2,7.485h.005a1.765,1.765,0,0,0,1.757-1.757v-4.514a1.765,1.765,0,0,0-1.758-1.757l-.5,0v-.5a9.528,9.528,0,1,1,19.056,0v.5l-.5,0a1.766,1.766,0,0,0-1.758,1.758v4.509a1.753,1.753,0,0,0,.878,1.519l.25.145v1.721a2.77,2.77,0,0,1-2.755,2.757h-2.852l-.145-.251a1.756,1.756,0,0,0-1.519-.878h-1.127a1.757,1.757,0,0,0,0,3.515h1.129a1.754,1.754,0,0,0,1.519-.878l.145-.25ZM135,279.668h.019l.5,0v5.511h-.531a2.758,2.758,0,0,1,.016-5.515Zm17.571.005h.5a2.757,2.757,0,1,1,.017,5.514h-.021l-.5,0Z" transform="translate(-130.999 -267.132)" fill="#fff"/>
</svg>
