<svg xmlns="http://www.w3.org/2000/svg" width="36.2" height="32.8" viewBox="0 0 36.2 32.8"><g fill="#fff"><circle cx="18.1" cy="16.4" r="3.3"/><path d="M25.9 10.5a3.17 3.17 0 0 0-.8-1.2 3.17 3.17 0 0 0-1.2-.8 6.13 6.13 0 0 0-1.9-.3c-1.1 0-1.4-.1-4.1-.1a36.93 36.93 0 0 0-4.1.1 6.13 6.13 0 0 0-1.9.3 3.17 3.17 0 0 0-1.2.8 3.17 3.17 0 0 0-.8 1.2 6.13 6.13 0 0 0-.3 1.9c0 1.1-.1 1.4-.1 4.1a36.93 36.93 0 0 0 .1 4.1 6.13 6.13 0 0 0 .3 1.9 3.17 3.17 0 0 0 .8 1.2 3.17 3.17 0 0 0 1.2.8 6.13 6.13 0 0 0 1.9.3c1.1 0 1.4.1 4.1.1a36.93 36.93 0 0 0 4.1-.1 6.13 6.13 0 0 0 1.9-.3 3.68 3.68 0 0 0 2-2 6.13 6.13 0 0 0 .3-1.9c0-1.1.1-1.4.1-4.1a36.93 36.93 0 0 0-.1-4.1 4.09 4.09 0 0 0-.3-1.9zm-7.8 11.1a5.2 5.2 0 1 1 0-10.4 5.2 5.2 0 1 1 0 10.4zm5.4-9.3a1.2 1.2 0 1 1 1.2-1.2 1.22 1.22 0 0 1-1.2 1.2z"/><path d="M34.4 7.3A12 12 0 0 0 30.6 3a17.4 17.4 0 0 0-3.3-1.8A19.63 19.63 0 0 0 20.4 0 21.26 21.26 0 0 0 7.6 4.1a17.51 17.51 0 0 0-4.8 5 18.45 18.45 0 0 0-2.6 7A14.64 14.64 0 0 0 0 19a14.85 14.85 0 0 0 1.1 5.7 12.46 12.46 0 0 0 3.2 4.4 14.2 14.2 0 0 0 5 2.7c.7.2 1.4.4 2.2.6a17.83 17.83 0 0 0 4.1.4h.1a23.43 23.43 0 0 0 11.8-3.4 18.19 18.19 0 0 0 8.4-12.7 17.33 17.33 0 0 0 .3-3.2 17.25 17.25 0 0 0-1.8-6.2zm-6.3 13.3a5.05 5.05 0 0 1-.5 2.4 5.52 5.52 0 0 1-3 3 11.05 11.05 0 0 1-2.4.5c-1.1 0-1.4.1-4.1.1a35.86 35.86 0 0 1-4.1-.1 5.05 5.05 0 0 1-2.4-.5 5.52 5.52 0 0 1-3-3 11.05 11.05 0 0 1-.5-2.4c0-1.1-.1-1.4-.1-4.1a35.86 35.86 0 0 1 .1-4.1 5.05 5.05 0 0 1 .5-2.4 4.14 4.14 0 0 1 1.2-1.9 5.17 5.17 0 0 1 1.8-1.2 11.05 11.05 0 0 1 2.4-.5c1.1 0 1.4-.1 4.1-.1a35.86 35.86 0 0 1 4.1.1 5.05 5.05 0 0 1 2.4.5 5.52 5.52 0 0 1 3 3 11.05 11.05 0 0 1 .5 2.4c0 1.1.1 1.4.1 4.1s-.1 3.1-.1 4.2z"/></g></svg>