<?xml version="1.0" encoding="utf-8"?>
<!-- Generator: Adobe Illustrator 19.2.1, SVG Export Plug-In . SVG Version: 6.00 Build 0)  -->
<svg version="1.1" id="Calque_1" xmlns="http://www.w3.org/2000/svg" xmlns:xlink="http://www.w3.org/1999/xlink" x="0px" y="0px"
	 viewBox="0 0 595.3 661.1" style="enable-background:new 0 0 595.3 661.1;" xml:space="preserve">
<g>
	<g>
		<path d="M520.1,168.2c-12.2-13.9-26.3-26.1-40.1-39.7c5-8.8,10.6-18.2,15.9-27.7c6.6-11.9,3.6-23.1-8.1-30.2
			c-9-5.4-18.2-10.5-27.3-15.7c-14.8-8.4-25-5.5-33.7,9.2c-5,8.6-10,17.2-14.4,24.8c-23.4-6.4-45.7-12.6-69.3-19
			c0-14.7,0-30.3,0-45.9C343,8.7,334.7,0.3,319.4,0.1c-10-0.2-20.1-0.1-30.1,0c-16.4,0-24.8,8.5-24.8,24.9c0,12.9-0.1,25.9,0.1,38.9
			c0.1,4.3-1.4,5.9-5.8,6.4c-8.7,1.1-17.4,2.5-26,4.4C106.3,102.1,10.3,212.1,1,341c-4.1,56.8,6.5,110.7,33.3,161.3
			c62.1,117.4,193.3,179.6,323.4,152.5c132.2-27.6,227.9-137.5,236.5-271.5C599.3,301.8,574.3,229.7,520.1,168.2z M297.5,617.9
			c-141.3,0-255.8-114.2-255.8-255.2c0-141,114.5-255.2,255.8-255.2s255.8,114.2,255.8,255.2C553.3,503.7,438.8,617.9,297.5,617.9z
			 M383.3,233.3c-5,1.5-10.2,5-13.5,9c-19.2,23.8-37.7,48.1-56.7,72c-1.8,2.2-5.5,4.7-7.8,4.4c-27.1-4.6-51.7,13.9-54.5,41.2
			c-2.8,26.6,18.9,50.4,46.1,50.6c32.1,0.3,54.3-29.5,45.2-60.2c-0.8-2.7,0-6.6,1.6-8.9c5.9-8.4,12.4-16.3,18.8-24.4
			c13.4-17.1,26.9-34.2,40.1-51.4c5.8-7.5,6.4-15.7,1.6-23.9C400.1,234.6,391.9,230.7,383.3,233.3z"/>
	</g>
</g>
</svg>
