<svg xmlns="http://www.w3.org/2000/svg" viewBox="0 0 24.01 24"><path d="M4.45 0a2 2 0 0 0-1 .37A19.18 19.18 0 0 0 1.53 2a9.7 9.7 0 0 0-1 1.12A1.82 1.82 0 0 0 0 4.33a9.16 9.16 0 0 0 1 3.79 31.35 31.35 0 0 0 6.43 8.44A31.33 31.33 0 0 0 15.88 23a9.12 9.12 0 0 0 3.78 1 1.86 1.86 0 0 0 1.18-.51 9.71 9.71 0 0 0 1.12-1 19.19 19.19 0 0 0 1.65-2 1.6 1.6 0 0 0-.15-2.26c-.41-.29-4.35-2.9-4.92-3.25a1.82 1.82 0 0 0-1.81.13c-.5.26-1.85 1-2.19 1.23a23.27 23.27 0 0 1-3.67-3.21 23.78 23.78 0 0 1-3.22-3.65c.19-.33 1-1.73 1.23-2.22A1.79 1.79 0 0 0 9 5.44 233.599 233.599 0 0 0 5.76.53a1.34 1.34 0 0 0-1-.52A1.74 1.74 0 0 0 4.45 0zm.09 1h.13a.6.6 0 0 1 .3.1c.09.13.85 1.28 1.59 2.4l1.63 2.45a1.24 1.24 0 0 1-.19.86c-.25.47-1.36 2.43-1.36 2.43l-.13.24.13.24a24.71 24.71 0 0 0 3.51 4.08 25.12 25.12 0 0 0 4.09 3.52l.24.13.24-.13s2-1.13 2.43-1.38a1.22 1.22 0 0 1 .88-.15c.39.24 4.59 3 4.86 3.22a.75.75 0 0 1-.09.91 18.49 18.49 0 0 1-1.54 1.86 8.93 8.93 0 0 1-1 .91 2.39 2.39 0 0 1-.55.31 7.84 7.84 0 0 1-3.4-.91 30.39 30.39 0 0 1-8.17-6.24 30.41 30.41 0 0 1-6.26-8.14A7.85 7.85 0 0 1 1 4.3a2.33 2.33 0 0 1 .31-.57 8.89 8.89 0 0 1 .91-1A19.18 19.18 0 0 1 4 1.16.92.92 0 0 1 4.54 1z" fill="#fff"/></svg>