<svg data-name="Calque 1" xmlns="http://www.w3.org/2000/svg" viewBox="0 0 16.9 24"><path d="M8.46 12a3.59 3.59 0 1 0-2.58-1 3.58 3.58 0 0 0 2.58 1zm-.03-6a2.47 2.47 0 0 1 1.75 4.21 2.49 2.49 0 0 1-1.76.7A2.45 2.45 0 1 1 8.43 6z" fill="#fff"/><path d="M8.45 0A8.46 8.46 0 0 0 0 8.45a8.71 8.71 0 0 0 1.43 5.2c1.08 1.73 6.5 9.6 6.55 9.67l.47.68.47-.68c.05-.08 5.46-7.93 6.55-9.67a8.71 8.71 0 0 0 1.43-5.2A8.46 8.46 0 0 0 8.45 0zm0 1.13a7.32 7.32 0 0 1 7.32 7.32A7.59 7.59 0 0 1 14.5 13c-.93 1.49-5.25 7.78-6.06 9-1-1.49-5.16-7.52-6.06-9a7.59 7.59 0 0 1-1.26-4.6 7.32 7.32 0 0 1 7.33-7.27z" fill="#fff"/></svg>