<svg xmlns="http://www.w3.org/2000/svg" viewBox="0 0 512 405.33"><path d="M511.19 206.67a10.65 10.65 0 0 0-2.33-11.62l-192-192a10.663 10.663 0 0 0-15.08 15.08l173.8 173.8H10.67a10.67 10.67 0 0 0 0 21.34h464.91L301.8 387a10.665 10.665 0 1 0 14.82 15.34l.27-.26 192-192a10.79 10.79 0 0 0 2.3-3.41z" fill="#d81e05"/><path d="M309.33 405.22a10.67 10.67 0 0 1-7.55-18.22l184.47-184.45L301.78 18.1a10.663 10.663 0 0 1 15.08-15.08l192 192a10.65 10.65 0 0 1 0 15.08l-192 192a10.63 10.63 0 0 1-7.53 3.12z" fill="#d81e05"/><path d="M501.33 213.22H10.67a10.67 10.67 0 0 1 0-21.34h490.66a10.67 10.67 0 1 1 0 21.34z" fill="#d81e05"/></svg>