<svg data-name="Calque 1" xmlns="http://www.w3.org/2000/svg" viewBox="0 0 432 432"><path d="M431.9 215.9c0-1.7 0-3.5-.1-5.2v-.9c0-1.5-.1-3-.2-4.5v-.9l-.3-4.9v-.3A214.7 214.7 0 0 0 389.2 87 216.2 216.2 0 0 0 215.8 0C102.9.1 10.2 86.9.8 197.4a2.2 2.2 0 0 1-.1.8c-.1 1.1-.2 2.2-.2 3.3s-.1 1.2-.1 1.8a26.2 26.2 0 0 0-.1 2.8c0 .8-.1 1.7-.1 2.6s-.1 1.5-.1 2.3-.1 3.3-.1 4.9c0 1.7 0 3.5.1 5.2v.9c0 1.5.1 3 .2 4.5v.9l.3 4.6v.5a215.3 215.3 0 0 0 42.3 112.6c0 .1.1.1.1.2l1.3 1.7A215.8 215.8 0 0 0 216 432c112.8-.1 205.4-86.7 215-197 0-.3.1-.6.1-.9l.3-3.4c0-.6.1-1.2.1-1.8s.1-2 .2-3 .1-1.6.1-2.5.1-1.6.1-2.4.1-3.3.1-4.9v-.2zM85.2 358.4l.5-17.6c0-20.9 23-31.8 46.5-41.1l5-2c8-3.2 20.3-9.2 33.4-15.5l3-1.4.6-.3a31.1 31.1 0 0 0 15.5-22.3c0-.2.1-.4.1-.6l1.6-15.1a11.6 11.6 0 0 0-3.4-9.5 68.9 68.9 0 0 1-19.5-35.2 11.5 11.5 0 0 0-10.8-9.1l-2.7-17a10.9 10.9 0 0 0 4.7-3.8 11.3 11.3 0 0 0 1.9-9.4 56.1 56.1 0 0 1-1.4-15.8v-.3a59.2 59.2 0 0 1 2.2-14.5c.1-.2.1-.5.2-.7a40.7 40.7 0 0 1 8.7-17.8l.3-.4a31.8 31.8 0 0 1 25.2-12.3l3.4.2a11.7 11.7 0 0 0 8.4-2.5c4.6-3.6 9.3-5.4 14.6-5.4 9 0 19.3 5.2 29 14.7h.1a51 51 0 0 1 12.2 17.8c.1.1.1.3.2.4a42.1 42.1 0 0 1 3.6 21v7.4a51 51 0 0 1-.8 6.7 13.6 13.6 0 0 0-.2 2v1.5a11.3 11.3 0 0 0 3.6 8.3 11.2 11.2 0 0 0 4.2 2.5l-2.7 16.7a11.5 11.5 0 0 0-11 9.7 56.1 56.1 0 0 1-18.6 33.4 11.6 11.6 0 0 0-3.9 9.9l1.6 15.6a1.3 1.3 0 0 0 .1.6 31 31 0 0 0 15.5 22.3l.6.3c14.2 6.9 28.4 13.8 36.2 17.1l6.4 2.6c23.8 9.7 45.2 20.1 45.2 40.6l.2 20.4c-74.8 66.1-186.9 64.5-259.5-2.1zm278.4-17.5c-1.4-36.5-24.2-46.7-55.9-62.7-2.1-1.1-4.2-1.7-6.1-2.5-7.2-3.1-20.9-9.7-34.7-16.4a8.4 8.4 0 0 1-3.8-5.4l-1-9.6a79.5 79.5 0 0 0 20-34.6 19.8 19.8 0 0 0 12.2-14.1 1.7 1.7 0 0 0 .1-.7l3.9-24.4a7.6 7.6 0 0 0 .1-1.5 19 19 0 0 0-5.3-13.9 20.9 20.9 0 0 0-2.2-2c0-.6.1-1.1.1-1.7v-7a65.7 65.7 0 0 0-5.6-31.8 73.2 73.2 0 0 0-17.5-25.4c-14-13.9-29.6-21.2-44.8-21.2a44.8 44.8 0 0 0-25.2 7.7 54.4 54.4 0 0 0-44.3 20.9 63.4 63.4 0 0 0-13.5 27.5 93 93 0 0 0-2.5 32.8 19.6 19.6 0 0 0-6.2 14.6c0 .5.1 1.1.1 1.6l3.9 24.4c0 .2.1.5.1.7a19.8 19.8 0 0 0 12.4 14.2 92.8 92.8 0 0 0 19.9 34.9l-1 9.4a7.8 7.8 0 0 1-3.8 5.4l-2.6 1.2c-12.7 6.1-24.7 11.9-32.1 14.9l-4.9 2c-17.2 6.8-46.2 18.4-56.9 42.6l-3 14.2A192.5 192.5 0 0 1 84 74.7c78.3-72.8 200.8-68.4 273.6 9.8a193 193 0 0 1 6 256.4z" fill="#d81e05"/></svg>