<svg xmlns="http://www.w3.org/2000/svg" viewBox="0 0 36 32.89"><path d="M34.54 7.26A12.09 12.09 0 0 0 30.77 3a15 15 0 0 0-3.35-1.76A19.69 19.69 0 0 0 20.54 0 21.93 21.93 0 0 0 7.66 4.06a18.64 18.64 0 0 0-4.78 5.08 18.89 18.89 0 0 0-2.63 7A18.15 18.15 0 0 0 0 19.11a13.84 13.84 0 0 0 1.15 5.69 12.48 12.48 0 0 0 3.25 4.4 14.4 14.4 0 0 0 5 2.75 13.5 13.5 0 0 0 2.19.55 20.68 20.68 0 0 0 4.06.39h.05a22.8 22.8 0 0 0 11.76-3.42 17.86 17.86 0 0 0 5.25-5 18.53 18.53 0 0 0 3.06-7.75 18.51 18.51 0 0 0 .23-3.15 13.42 13.42 0 0 0-1.46-6.31zM28 21.47a2.71 2.71 0 0 1-2.2 2.1 44.91 44.91 0 0 1-7.86.59 44.91 44.91 0 0 1-7.86-.59 2.78 2.78 0 0 1-2.2-2.1 26.58 26.58 0 0 1-.44-5.13 32 32 0 0 1 .39-5.13 2.71 2.71 0 0 1 2.2-2.1 44.09 44.09 0 0 1 7.86-.59l7.81.59a2.77 2.77 0 0 1 2.2 2.1 34.17 34.17 0 0 1 .59 5.13 37.46 37.46 0 0 1-.49 5.13z" fill="#fff"/><path fill="#fff" d="M15.29 19.76l5.96-3.42-5.96-3.42v6.84z"/></svg>