<?xml version="1.0" encoding="utf-8"?>
<!-- Generator: Adobe Illustrator 24.0.0, SVG Export Plug-In . SVG Version: 6.00 Build 0)  -->
<svg version="1.1"
	 id="svg2" xmlns:cc="http://creativecommons.org/ns#" xmlns:dc="http://purl.org/dc/elements/1.1/" xmlns:rdf="http://www.w3.org/1999/02/22-rdf-syntax-ns#" xmlns:svg="http://www.w3.org/2000/svg"
	 xmlns="http://www.w3.org/2000/svg" xmlns:xlink="http://www.w3.org/1999/xlink" x="0px" y="0px" viewBox="0 0 288 93"
	 style="enable-background:new 0 0 288 93;" xml:space="preserve">
<style type="text/css">
	.st0{fill:#1D337A;}
	.st1{fill:none;}
	.st2{fill:#231F20;}
	.st3{fill:#FF5F00;}
	.st4{fill:#EB001B;}
	.st5{fill:#F79E1B;}
</style>
<g id="g10" transform="matrix(1.3333333,0,0,-1.3333333,0,93.013333)">
	<g id="g12" transform="scale(0.1)">
		<path id="path14" class="st0" d="M665.2,518.3L598,204.5h-81.2L584,518.3H665.2z M1006.7,315.7l42.7,117.9l24.6-117.9H1006.7z
			 M1097.3,204.5h75.1l-65.5,313.8h-69.3c-15.6,0-28.7-9.1-34.6-23L881.2,204.5h85.2l16.9,46.9h104.2L1097.3,204.5z M885.4,307
			c0.3,82.8-114.6,87.4-113.8,124.4c0.2,11.3,11,23.2,34.4,26.3c11.7,1.5,43.7,2.7,80.1-14l14.2,66.6c-19.5,7.1-44.7,13.9-75.9,13.9
			c-80.2,0-136.7-42.7-137.2-103.8c-0.5-45.2,40.3-70.4,71.1-85.4c31.6-15.4,42.3-25.2,42.1-39c-0.2-21.1-25.2-30.4-48.6-30.7
			c-40.8-0.6-64.5,11-83.4,19.8l-14.7-68.8c19-8.7,54-16.3,90.3-16.7C829.4,199.6,885.2,241.7,885.4,307 M549.1,518.3L417.6,204.5
			h-85.8L267,455c-3.9,15.4-7.4,21.1-19.3,27.6c-19.5,10.6-51.7,20.5-80.1,26.7l1.9,9.1h138.1c17.6,0,33.4-11.7,37.4-32l34.2-181.6
			l84.5,213.6h85.4"/>
	</g>
</g>
<title>mc_vrt_rgb_pos</title>
<g id="Layer_2_1_">
	<g id="Layer_1-2">
		<rect x="173.8" class="st1" width="101.2" height="83"/>
		<path class="st2" d="M198.9,72.5v-4.1c0.1-1.4-1-2.5-2.3-2.6c-0.1,0-0.3,0-0.3,0c-1,0-1.8,0.4-2.3,1.1c-0.4-0.8-1.2-1.2-2.2-1.1
			c-0.8,0-1.5,0.3-1.9,1v-0.8h-1.4v6.6h1.4V69c-0.1-0.8,0.4-1.7,1.4-1.8c0.1,0,0.1,0,0.3,0c1,0,1.4,0.7,1.4,1.8v3.7h1.5v-3.6
			c-0.1-0.8,0.6-1.7,1.4-1.8c0.1,0,0.1,0,0.3,0c1,0,1.5,0.7,1.5,1.8v3.7L198.9,72.5z M220.3,65.9h-2.3V64h-1.5v2.1h-1.2v1.4h1.4v3
			c0,1.5,0.6,2.5,2.3,2.5c0.7,0,1.2-0.1,1.8-0.6l-0.4-1.2c-0.4,0.3-0.8,0.4-1.2,0.4c-0.7,0-1-0.4-1-1.1v-3h2.3L220.3,65.9z
			 M232.5,65.8c-0.7,0-1.4,0.4-1.8,1v-0.8h-1.4v6.6h1.4v-3.7c0-1.1,0.4-1.7,1.4-1.7c0.3,0,0.6,0,0.8,0.1l0.4-1.4
			C233.1,65.8,232.8,65.8,232.5,65.8L232.5,65.8z M213.9,66.5c-0.8-0.6-1.8-0.7-2.8-0.7c-1.7,0-2.8,0.8-2.8,2.1
			c0,1.1,0.8,1.8,2.3,1.9l0.7,0.1c0.8,0.1,1.1,0.3,1.1,0.7c0,0.6-0.6,0.8-1.5,0.8c-0.8,0-1.5-0.3-2.2-0.7l-0.7,1.1
			c0.8,0.6,1.8,0.8,2.9,0.8c1.9,0,3-1,3-2.2s-0.8-1.8-2.3-1.9l-0.7-0.1c-0.6-0.1-1.1-0.3-1.1-0.7c0-0.4,0.4-0.8,1.2-0.8
			c0.7,0,1.4,0.1,2.1,0.6L213.9,66.5z M252.4,65.8c-0.7,0-1.4,0.4-1.8,1v-0.8h-1.4v6.6h1.4v-3.7c0-1.1,0.4-1.7,1.4-1.7
			c0.3,0,0.6,0,1,0.1l0.4-1.4C253.1,65.8,252.7,65.8,252.4,65.8L252.4,65.8z M233.9,69.2c0,1.8,1.4,3.4,3.2,3.4c0.1,0,0.3,0,0.3,0
			c0.8,0,1.7-0.3,2.3-0.8l-0.7-1.1c-0.6,0.4-1.1,0.6-1.7,0.6c-1.1-0.1-2.1-1.1-1.9-2.3c0.1-1.1,1-1.8,1.9-1.9c0.7,0,1.2,0.3,1.7,0.6
			l0.7-1.1c-0.7-0.6-1.5-0.8-2.3-0.8c-1.8-0.1-3.4,1.2-3.4,3.2C233.9,69,233.9,69.1,233.9,69.2L233.9,69.2z M247.3,69.2v-3.3h-1.4
			v0.8c-0.6-0.7-1.2-1-2.1-1c-1.9,0-3.4,1.5-3.4,3.4s1.5,3.4,3.4,3.4c0.8,0,1.5-0.3,2.1-1v0.8h1.4V69.2z M242,69.2
			c0-1.1,1-1.9,2.1-1.9c1.1,0,1.9,1,1.9,2.1s-1,1.9-1.9,1.9c-1.1,0-1.9-0.8-2.1-1.9V69.2z M224.7,65.8c-1.9,0-3.4,1.7-3.4,3.4
			c0,1.9,1.7,3.4,3.4,3.4l0,0c1,0,1.9-0.3,2.8-0.8l-0.7-1.1c-0.6,0.4-1.2,0.7-1.9,0.7c-1,0.1-1.8-0.7-1.9-1.7h5c0-0.1,0-0.4,0-0.6
			C227.8,67.2,226.6,65.8,224.7,65.8L224.7,65.8z M224.7,67c1,0,1.7,0.7,1.7,1.7l0,0h-3.4C223,67.7,223.7,67,224.7,67L224.7,67z
			 M260.7,69.2v-5.9h-1.4v3.4c-0.6-0.7-1.2-1-2.1-1c-1.9,0-3.4,1.5-3.4,3.4c0,1.9,1.5,3.4,3.4,3.4c0.8,0,1.5-0.3,2.1-1v0.8h1.4V69.2
			z M263,71.6c0.1,0,0.1,0,0.3,0s0.1,0.1,0.3,0.1c0,0,0.1,0.1,0.1,0.3c0.1,0.1,0.1,0.4,0,0.6c0,0.1-0.1,0.1-0.1,0.3
			c0,0-0.1,0.1-0.3,0.1s-0.1,0-0.3,0c-0.3,0-0.6-0.1-0.6-0.4c-0.1-0.1-0.1-0.4,0-0.6c0-0.1,0.1-0.1,0.1-0.3c0,0,0.1-0.1,0.3-0.1
			C262.9,71.6,263,71.6,263,71.6L263,71.6z M263,72.7h0.1c0,0,0.1,0,0.1-0.1c0.1-0.1,0.1-0.6,0-0.7l-0.1-0.1H263h-0.1
			c0,0-0.1,0-0.1,0.1c-0.1,0.1-0.1,0.6,0,0.7l0.1,0.1C262.9,72.7,263,72.8,263,72.7L263,72.7z M263,72h0.1v0.1v0.1H263l0.1,0.3H263
			l-0.1-0.3l0,0v0.3h-0.1V72L263,72z M262.9,72v0.1h0.1c0,0,0,0,0.1,0l0,0l0,0c0,0,0,0-0.1,0L262.9,72z M255.3,69.2
			c0-1.1,1-1.9,2.1-1.9c1.1,0,1.9,1,1.9,2.1s-1,1.9-1.9,1.9c-1.1,0-1.9-0.8-2.1-1.9V69.2z M206.9,69.2v-3.3h-1.4v0.8
			c-0.6-0.7-1.2-1-2.1-1c-1.9,0-3.4,1.5-3.4,3.4s1.5,3.4,3.4,3.4c0.8,0,1.5-0.3,2.1-1v0.8h1.4V69.2z M201.5,69.2
			c0-1.1,1-1.9,2.1-1.9s1.9,1,1.9,2.1s-1,1.9-1.9,1.9c-1.1,0-1.9-0.8-2.1-1.9V69.2L201.5,69.2z"/>
		<g id="_Group_">
			<rect x="213.5" y="15.7" class="st3" width="21.8" height="39"/>
			<path id="_Path_" class="st4" d="M214.9,35.2c0-7.6,3.4-14.8,9.5-19.6C213.6,7.2,198,9,189.5,19.7c-8.4,10.8-6.6,26.3,4.1,34.9
				c9,7,21.7,7,30.6,0C218.3,50.1,214.9,42.9,214.9,35.2z"/>
			<path class="st5" d="M264.5,35.2c0,13.7-11.2,24.8-24.8,24.8c-5.5,0-11-1.9-15.3-5.2c10.8-8.4,12.7-24.1,4.1-34.9
				c-1.2-1.5-2.6-2.9-4.1-4.1c10.8-8.4,26.3-6.6,34.9,4.1C262.6,24.3,264.5,29.6,264.5,35.2L264.5,35.2z"/>
			<path class="st5" d="M262.2,50.6v-0.8h0.3v-0.1h-0.8v0.1h0.4v0.8H262.2z M263.7,50.6v-1h-0.3l-0.3,0.7l-0.3-0.7h-0.3v1h0.1v-0.7
				l0.3,0.7h0.1l0.3-0.7v0.7H263.7z"/>
		</g>
	</g>
</g>
</svg>
