<?xml version="1.0" encoding="UTF-8"?>
<svg width="26px" height="26px" viewBox="0 0 26 26" version="1.1" xmlns="http://www.w3.org/2000/svg" xmlns:xlink="http://www.w3.org/1999/xlink">
    <title>Functionalities/QR_Code_Outline</title>
    <g id="-------Step-8-----After-Feedback" stroke="none" stroke-width="1" fill="none" fill-rule="evenodd">
        <g id="Web-/-Login" transform="translate(-693.000000, -279.000000)" fill="#696969">
            <g id="Group-2" transform="translate(650.000000, 227.000000)">
                <g id="Functionalities/QR_Code_Outline" transform="translate(40.000000, 49.000000)">
                    <path d="M12,17 C13.654,17 15,18.346 15,20 L15,20 L15,26 C15,27.654 13.654,29 12,29 L12,29 L6,29 C4.346,29 3,27.654 3,26 L3,26 L3,20 C3,18.346 4.346,17 6,17 L6,17 L12,17 Z M25,27 L25,29 L21,29 L21,27 L25,27 Z M29,23 L29,29 L27,29 L27,25 L21,25 L21,23 L29,23 Z M19,26 L19,29 L17,29 L17,26 L19,26 Z M12,19 L6,19 C5.448,19 5,19.448 5,20 L5,20 L5,26 C5,26.552 5.448,27 6,27 L6,27 L12,27 C12.552,27 13,26.552 13,26 L13,26 L13,20 C13,19.448 12.552,19 12,19 L12,19 Z M11,21 L11,25 L7,25 L7,21 L11,21 Z M22,19 L22,21 L19,21 L19,24 L17,24 L17,19 L22,19 Z M29,17 L29,21 L24,21 L24,19 L27,19 L27,17 L29,17 Z M12,3 C13.654,3 15,4.346 15,6 L15,6 L15,12 C15,13.654 13.654,15 12,15 L12,15 L6,15 C4.346,15 3,13.654 3,12 L3,12 L3,6 C3,4.346 4.346,3 6,3 L6,3 L12,3 Z M26,3 C27.654,3 29,4.346 29,6 L29,6 L29,12 C29,13.654 27.654,15 26,15 L26,15 L20,15 C18.346,15 17,13.654 17,12 L17,12 L17,6 C17,4.346 18.346,3 20,3 L20,3 L26,3 Z M12,5 L6,5 C5.448,5 5,5.449 5,6 L5,6 L5,12 C5,12.551 5.448,13 6,13 L6,13 L12,13 C12.552,13 13,12.551 13,12 L13,12 L13,6 C13,5.449 12.552,5 12,5 L12,5 Z M26,5 L20,5 C19.448,5 19,5.449 19,6 L19,6 L19,12 C19,12.551 19.448,13 20,13 L20,13 L26,13 C26.552,13 27,12.551 27,12 L27,12 L27,6 C27,5.449 26.552,5 26,5 L26,5 Z M11,7 L11,11 L7,11 L7,7 L11,7 Z M25,7 L25,11 L21,11 L21,7 L25,7 Z" id="🎨-Colour"></path>
                </g>
            </g>
        </g>
    </g>
</svg>