<?xml version="1.0" encoding="utf-8"?>
<!-- Generator: Adobe Illustrator 24.0.0, SVG Export Plug-In . SVG Version: 6.00 Build 0)  -->
<svg version="1.1" id="Layer_1" xmlns="http://www.w3.org/2000/svg" xmlns:xlink="http://www.w3.org/1999/xlink" x="0px" y="0px"
	 viewBox="0 0 598.11 161.57" style="enable-background:new 0 0 598.11 161.57;" xml:space="preserve">
<style type="text/css">
	.st0{fill:#41A7DE;}
</style>
<g>
	<path class="st0" d="M92.72,24.31c32.3,5.1,56.71,31.46,56.71,65.43c0,37.49-29.61,67.19-68.21,67.19s-68.21-29.7-68.21-67.19
		c0-34.06,24.41-60.33,56.71-65.43V4.64h23.02V24.31z M122.6,89.84c0-20.7-11.97-36.38-29.88-41.02v39.26H69.7V48.81
		c-17.91,4.64-29.88,20.33-29.88,41.02c0,23.85,17.82,41.86,41.39,41.86S122.6,113.69,122.6,89.84"/>
	<path class="st0" d="M220.79,64.41v24.41c-10.86,0.19-25.62,3.71-32.2,10.58v55.41h-24.41V64.68h24.41v9.56
		C197.96,67.01,210.86,63.94,220.79,64.41"/>
	<path class="st0" d="M225.99,140.51l13.55-17.36c6.03,7.52,15.13,11.79,24.59,11.79c5.85,0,9.56-2.6,9.56-6.68
		c0-6.22-5.85-7.52-17.17-10.02c-18.1-3.99-27.01-12.9-27.01-27.56c0-15.78,14.57-27.75,33.6-27.75c12.81,0,24.13,4.45,32.48,13.09
		l-11.97,16.06c-6.22-5.48-12.81-7.98-20.23-7.98c-5.85,0-9.56,2.41-9.56,5.94c0,4.92,4.27,5.94,16.89,8.63
		c17.26,3.53,26.82,13.92,26.82,29.05c0,16.52-13.74,28.49-32.76,28.49C249.1,156.29,234.16,150.35,225.99,140.51"/>
	<path class="st0" d="M373.83,150.44c-7.24,3.62-15.04,5.48-22.37,5.48c-18.47,0-33.23-12.07-33.23-34.9V86.68h-14.66v-22h14.66
		V36.01h24.22v28.68h24.04l-6.13,22h-17.91v31.46c0,11.14,5.57,16.43,13.36,16.43c3.71,0,7.98-1.21,12.34-3.53L373.83,150.44z"/>
	<path class="st0" d="M423.67,134.48c10.49,0,17.26-4.64,22-11.32l15.68,15.41c-8.26,11.04-22.18,18-37.68,18
		c-27.47,0-48.17-20.14-48.17-46.87c0-26.64,20.23-46.78,47.05-46.78c25.52,0,43.53,19.95,43.53,45.48c0,3.16-0.28,6.4-0.65,8.72
		h-64.32C404,127.7,412.72,134.48,423.67,134.48 M401.77,99.86h39.91c-2.51-9.65-9.65-15.87-19.12-15.87
		C412.54,83.99,404.83,90.11,401.77,99.86"/>
	<path class="st0" d="M569.85,25.06V154.9h-24.41v-4.27c-6.59,3.9-14.29,6.03-22.55,6.03c-26.36,0-46.22-20.14-46.22-46.78
		s19.86-46.78,46.22-46.78c8.26,0,16.06,2.04,22.55,5.94v-43.9h24.41V25.06z M545.44,125.94v-32.2c-4.08-4.83-10.95-8.35-19.3-8.35
		c-14.11,0-24.22,10.58-24.22,24.5s10.21,24.41,24.22,24.5C534.39,134.38,541.36,130.77,545.44,125.94"/>
</g>
</svg>
