<?xml version="1.0" encoding="UTF-8" standalone="no"?>
<!-- Created with Inkscape (http://www.inkscape.org/) -->

<svg
   xmlns:dc="http://purl.org/dc/elements/1.1/"
   xmlns:cc="http://creativecommons.org/ns#"
   xmlns:rdf="http://www.w3.org/1999/02/22-rdf-syntax-ns#"
   xmlns:svg="http://www.w3.org/2000/svg"
   xmlns="http://www.w3.org/2000/svg"
   xmlns:sodipodi="http://sodipodi.sourceforge.net/DTD/sodipodi-0.dtd"
   xmlns:inkscape="http://www.inkscape.org/namespaces/inkscape"
   width="48px"
   height="48px"
   viewBox="0 0 48 48"
   id="svg7141"
   version="1.1"
   inkscape:version="0.91 r13725"
   sodipodi:docname="aide.svg">
  <defs
     id="defs7143" />
  <sodipodi:namedview
     id="base"
     pagecolor="#ffffff"
     bordercolor="#666666"
     borderopacity="1.0"
     inkscape:pageopacity="0.0"
     inkscape:pageshadow="2"
     inkscape:zoom="7"
     inkscape:cx="9.1428571"
     inkscape:cy="27.857143"
     inkscape:current-layer="svg7141"
     showgrid="true"
     inkscape:grid-bbox="true"
     inkscape:document-units="px"
     showguides="true"
     inkscape:guide-bbox="true"
     inkscape:window-width="1165"
     inkscape:window-height="746"
     inkscape:window-x="363"
     inkscape:window-y="76"
     inkscape:window-maximized="0">
    <sodipodi:guide
       orientation="0,1"
       position="12.714286,38"
       id="guide7149" />
    <sodipodi:guide
       orientation="0,1"
       position="14.285714,10"
       id="guide7151" />
    <sodipodi:guide
       orientation="1,0"
       position="10,32.571429"
       id="guide7153" />
    <sodipodi:guide
       orientation="1,0"
       position="38,23"
       id="guide7155" />
  </sodipodi:namedview>
  <metadata
     id="metadata7146">
    <rdf:RDF>
      <cc:Work
         rdf:about="">
        <dc:format>image/svg+xml</dc:format>
        <dc:type
           rdf:resource="http://purl.org/dc/dcmitype/StillImage" />
        <dc:title />
      </cc:Work>
    </rdf:RDF>
  </metadata>
  <g
     id="g9501"
     transform="matrix(1.5291512,0,0,1.538214,53.637796,32.795253)"
     style="display:inline;fill:#666666;fill-opacity:1">
    <path
       inkscape:connector-curvature="0"
       id="path5586"
       style="fill:#666666;fill-opacity:1;fill-rule:nonzero;stroke:none"
       d="m -19.593744,1.2450866 c -0.375103,0 -0.712696,-0.124466 -0.987203,-0.36828296 -0.286442,-0.247227 -0.424548,-0.588229 -0.424548,-1.029827 0,-0.390448 0.138106,-0.717811 0.412613,-0.98549704 0.274507,-0.265982 0.600165,-0.398973 0.999138,-0.398973 0.388743,0 0.726335,0.132991 0.987202,0.398973 0.262572,0.26768604 0.400678,0.59504904 0.400678,0.98549704 0,0.436483 -0.138106,0.77578 -0.412613,1.024712 -0.288147,0.24722696 -0.6121,0.37339796 -0.975267,0.37339796 z m -4.537039,-10.19768 c 0,-0.588229 0.187552,-1.1849826 0.562655,-1.7885576 0.387037,-0.606985 0.937756,-1.106553 1.662387,-1.503821 0.72463,-0.395563 1.575431,-0.59505 2.537058,-0.59505 0.900247,0 1.687963,0.165387 2.375083,0.497864 0.68712,0.330772 1.225904,0.782601 1.599301,1.352075 0.375103,0.571179 0.56436,1.1918036 0.56436,1.8618736 0,0.526849 -0.100596,0.988907 -0.325658,1.386175 -0.213126,0.395563 -0.462058,0.738271 -0.76214,1.028123 -0.288148,0.288147 -0.825226,0.774075 -1.575432,1.454375 -0.213127,0.192667 -0.388743,0.361463 -0.513209,0.508094 -0.124466,0.144926 -0.225061,0.277917 -0.286442,0.398973 -0.06308,0.121056 -0.112531,0.242112 -0.138106,0.363168 -0.03751,0.121055 -0.08696,0.334182 -0.161976,0.637674 -0.112531,0.644495 -0.475698,0.966742 -1.099733,0.966742 -0.325657,0 -0.600164,-0.104005 -0.813291,-0.315427 -0.225062,-0.211421 -0.337593,-0.523439 -0.337593,-0.941167 0,-0.520029 0.08866,-0.970152 0.250637,-1.352075 0.161977,-0.380218 0.375103,-0.716105 0.637675,-1.004252 0.262572,-0.289852 0.624035,-0.630855 1.074158,-1.028123 0.400678,-0.347822 0.68712,-0.610394 0.862736,-0.78601 0.175616,-0.177322 0.325658,-0.373398 0.450124,-0.59164 0.124465,-0.216536 0.187551,-0.451828 0.187551,-0.705875 0,-0.496159 -0.187551,-0.9155916 -0.562654,-1.2565936 -0.363168,-0.339298 -0.837161,-0.511504 -1.425391,-0.511504 -0.68712,0 -1.186688,0.172206 -1.512346,0.516619 -0.312017,0.344412 -0.586524,0.8508006 -0.811586,1.5208706 -0.213126,0.70076 -0.612099,1.050288 -1.200329,1.050288 -0.349527,0 -0.637674,-0.122761 -0.874671,-0.366578 -0.250637,-0.243817 -0.363168,-0.511504 -0.363168,-0.796241" />
    <path
       inkscape:connector-curvature="0"
       id="path5588"
       style="fill:#666666;fill-opacity:1;fill-rule:nonzero;stroke:none"
       d="m -19.431768,-18.076115 c -3.261689,0 -6.323892,1.270234 -8.637594,3.577116 -2.311996,2.308587 -3.573706,5.3776096 -3.573706,8.6427086 0,3.265099 1.26171,6.33412104 3.573706,8.642708 2.313702,2.306882 5.375905,3.577117 8.637594,3.577117 3.263394,0 6.339236,-1.27194 8.651233,-3.580527 4.7620999,-4.763805 4.7620999,-12.516497 0,-17.2820066 -2.311997,-2.306882 -5.375904,-3.577116 -8.651233,-3.577116 z m 0,26.9391976 c -3.923234,0 -7.623111,-1.529396 -10.398871,-4.308567 -2.787696,-2.780875 -4.311977,-6.477342 -4.311977,-10.410806 0,-3.933464 1.524281,-7.6316356 4.311977,-10.4108066 2.77576,-2.77917 6.475637,-4.310271 10.398871,-4.310271 3.938579,0 7.638456,1.531101 10.4142159,4.310271 5.737367,5.740778 5.737367,15.0791306 0,20.8182026 -2.7757599,2.780876 -6.4756369,4.311977 -10.4142159,4.311977" />
  </g>
</svg>
