<?xml version="1.0" encoding="UTF-8" standalone="no"?>
<!-- Created with Inkscape (http://www.inkscape.org/) -->

<svg
   xmlns:dc="http://purl.org/dc/elements/1.1/"
   xmlns:cc="http://creativecommons.org/ns#"
   xmlns:rdf="http://www.w3.org/1999/02/22-rdf-syntax-ns#"
   xmlns:svg="http://www.w3.org/2000/svg"
   xmlns="http://www.w3.org/2000/svg"
   xmlns:sodipodi="http://sodipodi.sourceforge.net/DTD/sodipodi-0.dtd"
   xmlns:inkscape="http://www.inkscape.org/namespaces/inkscape"
   width="48px"
   height="48px"
   id="svg7141"
   version="1.1"
   inkscape:version="0.91 r13725"
   sodipodi:docname="Cadenas.svg"
   inkscape:export-filename="Y:\AGILE\Banque d'images\Picto\5 Page Collectivité\Arbre 75x75.png"
   inkscape:export-xdpi="140.63"
   inkscape:export-ydpi="140.63">
  <defs
     id="defs7143" />
  <sodipodi:namedview
     id="base"
     pagecolor="#ffffff"
     bordercolor="#666666"
     borderopacity="1.0"
     inkscape:pageopacity="0.0"
     inkscape:pageshadow="2"
     inkscape:zoom="9.7877908"
     inkscape:cx="25.794759"
     inkscape:cy="33.633107"
     inkscape:current-layer="layer1"
     showgrid="true"
     inkscape:grid-bbox="true"
     inkscape:document-units="px"
     showguides="true"
     inkscape:guide-bbox="true"
     inkscape:window-width="1440"
     inkscape:window-height="853"
     inkscape:window-x="-4"
     inkscape:window-y="-4"
     inkscape:window-maximized="1">
    <sodipodi:guide
       orientation="0,1"
       position="53,2.2857143"
       id="guide7149" />
    <sodipodi:guide
       orientation="0,1"
       position="14.285714,10"
       id="guide7151" />
    <sodipodi:guide
       orientation="1,0"
       position="10,32.571429"
       id="guide7153" />
    <sodipodi:guide
       orientation="1,0"
       position="38,23"
       id="guide7155" />
  </sodipodi:namedview>
  <metadata
     id="metadata7146">
    <rdf:RDF>
      <cc:Work
         rdf:about="">
        <dc:format>image/svg+xml</dc:format>
        <dc:type
           rdf:resource="http://purl.org/dc/dcmitype/StillImage" />
        <dc:title />
      </cc:Work>
    </rdf:RDF>
  </metadata>
  <g
     inkscape:groupmode="layer"
     id="layer2"
     inkscape:label="Toile de Fond"
     style="display:none">
    <rect
       style="fill:#292929;fill-opacity:1;stroke:none"
       id="rect7177"
       width="48"
       height="48"
       x="0"
       y="0" />
  </g>
  <g
     id="layer1"
     inkscape:label="Image noire"
     inkscape:groupmode="layer"
     style="display:inline">
    <path
       d="m 517.83617,-1483.3689 c -0.34271,0 -0.67007,-0.1398 -0.90707,-0.3887 l -8.28125,-8.6973 c -0.4757,-0.4996 -0.45523,-1.2907 0.0443,-1.7664 0.49787,-0.4757 1.28899,-0.4569 1.7681,0.043 l 7.30598,7.6726 17.38601,-21.1984 c 0.4399,-0.532 1.22591,-0.6121 1.75958,-0.1739 0.53537,0.4382 0.61209,1.2259 0.17391,1.7595 l -18.28456,22.2931 c -0.22676,0.2762 -0.56095,0.4416 -0.919,0.4569 l -0.046,0"
       style="fill:#f2eee8;fill-opacity:1;fill-rule:nonzero;stroke:none"
       id="path5426"
       inkscape:connector-curvature="0" />
    <path
       d="m 12.775171,22.750841 0,13.333197 22.499344,0 0,-13.333197 -22.499344,0 z m 22.499344,15.832746 -22.499344,0 c -1.381061,0 -2.49955,-1.121899 -2.49955,-2.499549 l 0,-13.333197 c 0,-1.379355 1.118489,-2.501254 2.49955,-2.501254 l 22.499344,0 c 1.375945,0 2.499549,1.121899 2.499549,2.501254 l 0,13.333197 c 0,1.37765 -1.123604,2.499549 -2.499549,2.499549"
       style="fill:#ffffff;fill-opacity:1;fill-rule:nonzero;stroke:none"
       id="path5026"
       inkscape:connector-curvature="0" />
    <path
       d="m 32.043517,22.442233 c -0.69053,0 -1.249775,-0.559244 -1.249775,-1.249774 l 0,-3.440715 c 0,-3.733978 -3.036627,-6.77231 -6.768899,-6.77231 -3.735683,0 -6.77231,3.038332 -6.77231,6.77231 l 0,3.440715 c 0,0.69053 -0.559244,1.249774 -1.251479,1.249774 -0.69053,0 -1.249774,-0.559244 -1.249774,-1.249774 l 0,-3.440715 c 0,-5.113333 4.160231,-9.2718591 9.273563,-9.2718591 5.109922,0 9.270153,4.1585261 9.270153,9.2718591 l 0,3.440715 c 0,0.69053 -0.559244,1.249774 -1.251479,1.249774"
       style="fill:#ffffff;fill-opacity:1;fill-rule:nonzero;stroke:none"
       id="path5028"
       inkscape:connector-curvature="0" />
    <path
       d="m 24.024843,25.153203 c -1.440736,0 -2.605259,1.164524 -2.605259,2.603554 0,0.982088 0.549014,1.827774 1.352075,2.271077 l 0,2.930916 2.501253,0 0,-2.930916 c 0.803061,-0.441598 1.35378,-1.288989 1.35378,-2.271077 0,-1.43903 -1.164524,-2.603554 -2.601849,-2.603554"
       style="fill:#ffffff;fill-opacity:1;fill-rule:nonzero;stroke:none"
       id="path5030"
       inkscape:connector-curvature="0" />
  </g>
  <g
     inkscape:groupmode="layer"
     id="layer3"
     inkscape:label="Image blanche"
     style="display:none">
    <path
       d="m 15.251946,20.203183 17.496542,0 -8.747691,-5.986254 -8.748851,5.986254 z m 20.92785,2.124295 -24.361329,0 c -0.463812,0 -0.876652,-0.308437 -1.013638,-0.754436 -0.136841,-0.434416 0.03114,-0.923859 0.415302,-1.188853 l 12.180592,-8.333548 c 0.360855,-0.244721 0.837699,-0.244721 1.198554,0 l 12.180014,8.333548 c 0.385327,0.264994 0.553301,0.754437 0.414143,1.188853 -0.136985,0.445999 -0.547074,0.754436 -1.013638,0.754436"
       style="fill:#ffffff;fill-opacity:1;fill-rule:nonzero;stroke:none;display:inline"
       id="path7300-0"
       inkscape:connector-curvature="0" />
    <path
       d="m 14.887762,32.81573 c -0.587187,0 -1.061715,-0.467721 -1.061715,-1.061424 l 0,-10.085693 c 0,-0.583566 0.474528,-1.061423 1.061715,-1.061423 0.586026,0 1.061711,0.477857 1.061711,1.061423 l 0,10.085693 c 0,0.593703 -0.475685,1.061424 -1.061711,1.061424"
       style="fill:#ffffff;fill-opacity:1;fill-rule:nonzero;stroke:none;display:inline"
       id="path7302-0"
       inkscape:connector-curvature="0" />
    <path
       d="m 33.111082,32.81573 c -0.586463,0 -1.061134,-0.467721 -1.061134,-1.061424 l 0,-10.085693 c 0,-0.583566 0.474671,-1.061423 1.061134,-1.061423 0.586606,0 1.061711,0.477857 1.061711,1.061423 l 0,10.085693 c 0,0.593703 -0.475105,1.061424 -1.061711,1.061424"
       style="fill:#ffffff;fill-opacity:1;fill-rule:nonzero;stroke:none;display:inline"
       id="path7304-2"
       inkscape:connector-curvature="0" />
    <path
       d="m 19.442903,32.81573 c -0.586608,0 -1.061134,-0.467721 -1.061134,-1.061424 l 0,-10.085693 c 0,-0.583566 0.474526,-1.061423 1.061134,-1.061423 0.586028,0 1.061712,0.477857 1.061712,1.061423 l 0,10.085693 c 0,0.593703 -0.475684,1.061424 -1.061712,1.061424"
       style="fill:#ffffff;fill-opacity:1;fill-rule:nonzero;stroke:none;display:inline"
       id="path7306-5"
       inkscape:connector-curvature="0" />
    <path
       d="m 24.000797,32.81573 c -0.587043,0 -1.061714,-0.467721 -1.061714,-1.061424 l 0,-10.085693 c 0,-0.583566 0.474671,-1.061423 1.061714,-1.061423 0.586027,0 1.061133,0.477857 1.061133,1.061423 l 0,10.085693 c 0,0.593703 -0.475106,1.061424 -1.061133,1.061424"
       style="fill:#ffffff;fill-opacity:1;fill-rule:nonzero;stroke:none;display:inline"
       id="path7308-7"
       inkscape:connector-curvature="0" />
    <path
       d="m 28.555939,32.81573 c -0.58704,0 -1.061714,-0.467721 -1.061714,-1.061424 l 0,-10.085693 c 0,-0.583566 0.474674,-1.061423 1.061714,-1.061423 0.586028,0 1.061712,0.477857 1.061712,1.061423 l 0,10.085693 c 0,0.593703 -0.475684,1.061424 -1.061712,1.061424"
       style="fill:#ffffff;fill-opacity:1;fill-rule:nonzero;stroke:none;display:inline"
       id="path7310-5"
       inkscape:connector-curvature="0" />
    <path
       d="m 34.81544,32.953295 -21.630301,0 c -0.587186,0 -1.061713,-0.477857 -1.061713,-1.061423 0,-0.583565 0.474527,-1.061424 1.061713,-1.061424 l 21.630301,0 c 0.587185,0 1.061713,0.477859 1.061713,1.061424 0,0.583566 -0.474528,1.061423 -1.061713,1.061423"
       style="fill:#ffffff;fill-opacity:1;fill-rule:nonzero;stroke:none;display:inline"
       id="path7312-7"
       inkscape:connector-curvature="0" />
    <path
       d="M 36.938288,36 11.061713,36 C 10.475107,36 10,35.533726 10,34.938577 c 0,-0.583566 0.475107,-1.061423 1.061713,-1.061423 l 25.876575,0 C 37.525473,33.877154 38,34.355011 38,34.938577 38,35.533726 37.525473,36 36.938288,36"
       style="fill:#ffffff;fill-opacity:1;fill-rule:nonzero;stroke:none;display:inline"
       id="path7314-0"
       inkscape:connector-curvature="0" />
  </g>
</svg>
