<?xml version="1.0" encoding="UTF-8" standalone="no"?>
<!-- Generator: Adobe Illustrator 14.0.0, SVG Export Plug-In . SVG Version: 6.00 Build 43363)  -->

<svg
   xmlns:dc="http://purl.org/dc/elements/1.1/"
   xmlns:cc="http://creativecommons.org/ns#"
   xmlns:rdf="http://www.w3.org/1999/02/22-rdf-syntax-ns#"
   xmlns:svg="http://www.w3.org/2000/svg"
   xmlns="http://www.w3.org/2000/svg"
   xmlns:sodipodi="http://sodipodi.sourceforge.net/DTD/sodipodi-0.dtd"
   xmlns:inkscape="http://www.inkscape.org/namespaces/inkscape"
   version="1.1"
   id="Calque_1"
   x="0px"
   y="0px"
   width="578.891px"
   height="125.975px"
   viewBox="0 0 578.891 125.975"
   enable-background="new 0 0 578.891 125.975"
   xml:space="preserve"
   inkscape:version="0.91 r13725"
   sodipodi:docname="impots_gouv_fr_header-Sans fond.svg"><metadata
   id="metadata235"><rdf:RDF><cc:Work
       rdf:about=""><dc:format>image/svg+xml</dc:format><dc:type
         rdf:resource="http://purl.org/dc/dcmitype/StillImage" /><dc:title></dc:title></cc:Work></rdf:RDF></metadata><defs
   id="defs233" /><sodipodi:namedview
   pagecolor="#ffffff"
   bordercolor="#666666"
   borderopacity="1"
   objecttolerance="10"
   gridtolerance="10"
   guidetolerance="10"
   inkscape:pageopacity="0"
   inkscape:pageshadow="2"
   inkscape:window-width="1680"
   inkscape:window-height="998"
   id="namedview231"
   showgrid="false"
   inkscape:zoom="0.658155"
   inkscape:cx="12.155191"
   inkscape:cy="61.4681"
   inkscape:window-x="-8"
   inkscape:window-y="-8"
   inkscape:window-maximized="1"
   inkscape:current-layer="Calque_1" />
<g
   display="none"
   opacity="0.64"
   id="g3">
	<linearGradient
   id="SVGID_1_"
   gradientUnits="userSpaceOnUse"
   x1="3.2349"
   y1="132.8369"
   x2="3.2349"
   y2="66.0176">
		<stop
   offset="0.1758"
   style="stop-color:#FFFFFF"
   id="stop6" />
		<stop
   offset="1"
   style="stop-color:#D6D6D6"
   id="stop8" />
	</linearGradient>
	<path
   display="inline"
   fill="url(#SVGID_1_)"
   d="M6.47,66.017v50.482H0V66.017H6.47z M6.47,132.837H0v-10.418H6.47V132.837z"
   id="path10" />
	<linearGradient
   id="SVGID_2_"
   gradientUnits="userSpaceOnUse"
   x1="55.4609"
   y1="117.5088"
   x2="55.4609"
   y2="66.0176">
		<stop
   offset="0.1758"
   style="stop-color:#FFFFFF"
   id="stop13" />
		<stop
   offset="1"
   style="stop-color:#D6D6D6"
   id="stop15" />
	</linearGradient>
	<path
   display="inline"
   fill="url(#SVGID_2_)"
   d="M49.38,115.1c-3.151,1.605-6.639,2.409-10.463,2.409   c-3.304,0-6.265-0.566-8.88-1.697c-2.616-1.133-4.888-2.816-6.815-5.049v5.736h-6.379V66.017h6.379v24.552   c0,4.375,0.161,7.442,0.482,9.202c0.321,1.759,0.879,3.327,1.675,4.703c1.285,2.203,3.036,3.894,5.255,5.071   c2.218,1.178,4.796,1.768,7.733,1.768c4.865,0,8.474-1.385,10.831-4.153c2.355-2.77,3.534-7.061,3.534-12.873v-28.27h6.104v24.552   c0,4.375,0.167,7.442,0.505,9.202c0.336,1.759,0.887,3.327,1.652,4.703c1.285,2.203,3.021,3.894,5.209,5.071   c2.187,1.178,4.719,1.768,7.595,1.768c4.986,0,8.582-1.415,10.785-4.245c2.203-2.831,3.304-7.58,3.304-14.25V66.017h6.196v25.47   c0,9.117-1.561,15.733-4.681,19.849c-3.121,4.114-8.108,6.173-14.961,6.173c-3.763,0-7.167-0.758-10.211-2.271   c-3.044-1.515-5.592-3.726-7.641-6.632C54.933,111.328,52.531,113.493,49.38,115.1z"
   id="path17" />
	<linearGradient
   id="SVGID_3_"
   gradientUnits="userSpaceOnUse"
   x1="130.0596"
   y1="117.6006"
   x2="130.0596"
   y2="49.6797">
		<stop
   offset="0.1758"
   style="stop-color:#FFFFFF"
   id="stop20" />
		<stop
   offset="1"
   style="stop-color:#D6D6D6"
   id="stop22" />
	</linearGradient>
	<path
   display="inline"
   fill="url(#SVGID_3_)"
   d="M104.268,49.679h6.379v13.309v7.526v3.487c2.172-3.028,4.902-5.339,8.192-6.93   c3.288-1.59,6.982-2.386,11.083-2.386c7.404,0,13.576,2.539,18.518,7.618c4.94,5.078,7.412,11.319,7.412,18.724   c0,7.588-2.501,13.913-7.503,18.978c-5.002,5.063-11.313,7.595-18.931,7.595c-3.855,0-7.488-0.85-10.899-2.547   c-3.412-1.698-6.035-3.97-7.871-6.814v8.26h-6.379V49.679z M116.337,105.577c3.793,4.008,8.184,6.012,13.171,6.012   c5.415,0,10.027-1.997,13.836-5.989s5.714-8.942,5.714-14.847c0-5.629-1.897-10.379-5.691-14.249   c-3.794-3.871-8.337-5.806-13.63-5.806c-5.14,0-9.607,2.042-13.401,6.127c-3.794,4.084-5.69,9.002-5.69,14.754   C110.647,96.902,112.543,101.568,116.337,105.577z"
   id="path24" />
	<linearGradient
   id="SVGID_4_"
   gradientUnits="userSpaceOnUse"
   x1="186.9434"
   y1="118.1055"
   x2="186.9434"
   y2="64.5952">
		<stop
   offset="0.1758"
   style="stop-color:#FFFFFF"
   id="stop27" />
		<stop
   offset="1"
   style="stop-color:#D6D6D6"
   id="stop29" />
	</linearGradient>
	<path
   display="inline"
   fill="url(#SVGID_4_)"
   d="M168.495,72.42c5.063-5.217,11.251-7.825,18.563-7.825   c7.189,0,13.309,2.661,18.357,7.985c5.048,5.323,7.572,11.748,7.572,19.275c0,7.159-2.578,13.323-7.733,18.494   c-5.156,5.17-11.39,7.756-18.702,7.756c-6.945,0-12.958-2.632-18.036-7.894c-5.079-5.263-7.618-11.596-7.618-19   C160.899,83.899,163.431,77.635,168.495,72.42z M173.222,105.944c3.687,3.946,8.1,5.92,13.24,5.92c5.721,0,10.441-1.92,14.158-5.76   s5.576-8.743,5.576-14.709c0-5.874-1.835-10.777-5.507-14.708c-3.671-3.932-8.215-5.897-13.63-5.897   c-5.507,0-10.112,1.966-13.813,5.897c-3.703,3.931-5.553,8.803-5.553,14.616C167.691,97.116,169.534,101.997,173.222,105.944z"
   id="path31" />
	<linearGradient
   id="SVGID_5_"
   gradientUnits="userSpaceOnUse"
   x1="228.2471"
   y1="132.8369"
   x2="228.2471"
   y2="66.0176">
		<stop
   offset="0.1758"
   style="stop-color:#FFFFFF"
   id="stop34" />
		<stop
   offset="1"
   style="stop-color:#D6D6D6"
   id="stop36" />
	</linearGradient>
	<path
   display="inline"
   fill="url(#SVGID_5_)"
   d="M231.482,66.017v43.965h9.592v6.517h-9.592v16.338h-6.471v-16.338h-9.592v-6.517   h9.592V66.017H231.482z"
   id="path38" />
	<linearGradient
   id="SVGID_6_"
   gradientUnits="userSpaceOnUse"
   x1="259.064"
   y1="117.7842"
   x2="259.064"
   y2="64.687">
		<stop
   offset="0.1758"
   style="stop-color:#FFFFFF"
   id="stop41" />
		<stop
   offset="1"
   style="stop-color:#D6D6D6"
   id="stop43" />
	</linearGradient>
	<path
   display="inline"
   fill="url(#SVGID_6_)"
   d="M247.591,69.344c2.875-3.105,6.685-4.657,11.427-4.657   c4.65,0,8.49,1.422,11.519,4.268c3.029,2.846,4.543,6.44,4.543,10.785c0,3.457-0.742,6.302-2.226,8.536   c-1.484,2.232-3.802,4.022-6.953,5.369c-0.796,0.337-2.363,0.856-4.704,1.561c-2.34,0.703-4.123,1.438-5.346,2.202   c-1.347,0.826-2.311,1.751-2.891,2.777c-0.582,1.024-0.872,2.286-0.872,3.786c0,2.111,0.703,3.878,2.111,5.3   c1.407,1.424,3.167,2.135,5.278,2.135c2.355,0,4.214-0.658,5.576-1.974c1.361-1.316,2.119-3.166,2.272-5.553h6.93   c-0.184,4.374-1.545,7.786-4.084,10.233c-2.54,2.448-5.966,3.672-10.28,3.672c-4.069,0-7.535-1.377-10.395-4.131   c-2.861-2.753-4.291-6.104-4.291-10.05c0-3.488,0.856-6.272,2.57-8.353c1.713-2.081,5.369-4.115,10.968-6.104   c3.488-1.285,5.897-2.662,7.228-4.131c1.331-1.468,1.997-3.412,1.997-5.828c0-2.417-0.842-4.421-2.524-6.013   c-1.683-1.59-3.794-2.386-6.333-2.386c-2.662,0-4.896,1.032-6.7,3.098c-1.806,2.065-2.708,4.673-2.708,7.824v0.184h-6.654   C243.2,76.633,244.714,72.449,247.591,69.344z"
   id="path45" />
	<linearGradient
   id="SVGID_7_"
   gradientUnits="userSpaceOnUse"
   x1="287.541"
   y1="78.2246"
   x2="287.541"
   y2="66.0176">
		<stop
   offset="0.1758"
   style="stop-color:#FFFFFF"
   id="stop48" />
		<stop
   offset="1"
   style="stop-color:#D6D6D6"
   id="stop50" />
	</linearGradient>
	<path
   display="inline"
   fill="url(#SVGID_7_)"
   d="M290.822,78.225h-6.563V66.017h6.563V78.225z"
   id="path52" />
	<linearGradient
   id="SVGID_8_"
   gradientUnits="userSpaceOnUse"
   x1="328.981"
   y1="117.6924"
   x2="328.981"
   y2="46.2837">
		<stop
   offset="0.1758"
   style="stop-color:#FFFFFF"
   id="stop55" />
		<stop
   offset="1"
   style="stop-color:#D6D6D6"
   id="stop57" />
	</linearGradient>
	<path
   display="inline"
   fill="url(#SVGID_8_)"
   d="M307.114,61.887c1.193-4.742,3.839-8.528,7.939-11.358   c4.1-2.83,9.01-4.245,14.731-4.245c7.771,0,13.866,2.479,18.288,7.435c4.421,4.957,6.632,11.84,6.632,20.651v42.13h-6.334v-8.26   c-2.386,3.242-5.133,5.629-8.237,7.159c-3.105,1.528-6.784,2.294-11.037,2.294c-7.313,0-13.446-2.523-18.402-7.572   c-4.957-5.048-7.436-11.289-7.436-18.725c0-7.557,2.509-13.867,7.527-18.931c5.017-5.064,11.319-7.595,18.907-7.595   c3.763,0,7.205,0.849,10.325,2.547c3.122,1.698,5.905,4.214,8.353,7.55v-1.332c0-6.395-1.736-11.502-5.208-15.328   c-3.473-3.824-8.085-5.736-13.837-5.736c-3.672,0-6.792,0.819-9.362,2.455c-2.57,1.637-4.345,3.924-5.323,6.861H307.114z    M315.788,105.967c3.763,3.87,8.275,5.806,13.538,5.806c5.109,0,9.546-2.035,13.309-6.104c3.764-4.07,5.645-8.98,5.645-14.732   c0-5.385-1.912-10.073-5.736-14.065c-3.825-3.993-8.23-5.989-13.217-5.989c-5.293,0-9.813,1.988-13.561,5.966   c-3.749,3.978-5.623,8.918-5.623,14.823C310.142,97.331,312.025,102.096,315.788,105.967z"
   id="path59" />
	<linearGradient
   id="SVGID_9_"
   gradientUnits="userSpaceOnUse"
   x1="388.0454"
   y1="118.1055"
   x2="388.0454"
   y2="64.5952">
		<stop
   offset="0.1758"
   style="stop-color:#FFFFFF"
   id="stop62" />
		<stop
   offset="1"
   style="stop-color:#D6D6D6"
   id="stop64" />
	</linearGradient>
	<path
   display="inline"
   fill="url(#SVGID_9_)"
   d="M369.596,72.42c5.064-5.217,11.252-7.825,18.564-7.825   c7.188,0,13.309,2.661,18.356,7.985c5.049,5.323,7.573,11.748,7.573,19.275c0,7.159-2.578,13.323-7.733,18.494   c-5.156,5.17-11.39,7.756-18.702,7.756c-6.945,0-12.957-2.632-18.035-7.894c-5.079-5.263-7.618-11.596-7.618-19   C362.001,83.899,364.533,77.635,369.596,72.42z M374.324,105.944c3.687,3.946,8.101,5.92,13.239,5.92   c5.722,0,10.441-1.92,14.158-5.76c3.718-3.84,5.576-8.743,5.576-14.709c0-5.874-1.835-10.777-5.507-14.708   c-3.671-3.932-8.215-5.897-13.63-5.897c-5.507,0-10.113,1.966-13.814,5.897c-3.701,3.931-5.553,8.803-5.553,14.616   C368.793,97.116,370.636,101.997,374.324,105.944z"
   id="path66" />
	<linearGradient
   id="SVGID_10_"
   gradientUnits="userSpaceOnUse"
   x1="442.7036"
   y1="116.499"
   x2="442.7036"
   y2="64.687">
		<stop
   offset="0.1758"
   style="stop-color:#FFFFFF"
   id="stop69" />
		<stop
   offset="1"
   style="stop-color:#D6D6D6"
   id="stop71" />
	</linearGradient>
	<path
   display="inline"
   fill="url(#SVGID_10_)"
   d="M421.525,90.157c0-9.118,1.605-15.643,4.818-19.573   c3.212-3.932,8.459-5.897,15.741-5.897c3.426,0,6.349,0.536,8.765,1.606c2.417,1.071,4.604,2.799,6.563,5.186v-5.461h6.471v50.482   h-6.471V91.671c0-4.436-0.168-7.549-0.505-9.339s-0.888-3.343-1.652-4.658c-1.347-2.233-3.12-3.939-5.323-5.117   s-4.758-1.767-7.664-1.767c-5.11,0-8.781,1.43-11.015,4.291c-2.233,2.86-3.35,7.733-3.35,14.617v26.801h-6.379V90.157z"
   id="path73" />
	<linearGradient
   id="SVGID_11_"
   gradientUnits="userSpaceOnUse"
   x1="491.396"
   y1="116.499"
   x2="491.396"
   y2="66.0176">
		<stop
   offset="0.1758"
   style="stop-color:#FFFFFF"
   id="stop76" />
		<stop
   offset="1"
   style="stop-color:#D6D6D6"
   id="stop78" />
	</linearGradient>
	<path
   display="inline"
   fill="url(#SVGID_11_)"
   d="M514.549,116.499h-7.021l-16.292-40.706l-16.155,40.706h-6.838l19.734-50.482   h5.92L514.549,116.499z"
   id="path80" />
	<linearGradient
   id="SVGID_12_"
   gradientUnits="userSpaceOnUse"
   x1="516.729"
   y1="78.2246"
   x2="516.729"
   y2="66.0176">
		<stop
   offset="0.1758"
   style="stop-color:#FFFFFF"
   id="stop83" />
		<stop
   offset="1"
   style="stop-color:#D6D6D6"
   id="stop85" />
	</linearGradient>
	<path
   display="inline"
   fill="url(#SVGID_12_)"
   d="M520.01,78.225h-6.563V66.017h6.563V78.225z"
   id="path87" />
	<linearGradient
   id="SVGID_13_"
   gradientUnits="userSpaceOnUse"
   x1="542.9556"
   y1="133.6172"
   x2="542.9556"
   y2="66.0176">
		<stop
   offset="0.1758"
   style="stop-color:#FFFFFF"
   id="stop90" />
		<stop
   offset="1"
   style="stop-color:#D6D6D6"
   id="stop92" />
	</linearGradient>
	<path
   display="inline"
   fill="url(#SVGID_13_)"
   d="M544.196,110.854h10.555v5.645h-10.646v1.377c0,3.579,0.804,6.11,2.409,7.596   c1.606,1.483,4.353,2.256,8.237,2.317v5.828h-0.597c-5.599,0-9.751-1.285-12.459-3.855c-2.708-2.569-4.063-6.532-4.063-11.886   v-1.377h-6.471v-5.645h6.746V66.017h6.288V110.854z"
   id="path94" />
	<linearGradient
   id="SVGID_14_"
   gradientUnits="userSpaceOnUse"
   x1="569.9185"
   y1="117.2334"
   x2="569.9185"
   y2="66.0176">
		<stop
   offset="0.1758"
   style="stop-color:#FFFFFF"
   id="stop97" />
		<stop
   offset="1"
   style="stop-color:#D6D6D6"
   id="stop99" />
	</linearGradient>
	<path
   display="inline"
   fill="url(#SVGID_14_)"
   d="M567.509,96.49c0,4.65,0.879,8.008,2.639,10.073   c1.76,2.064,4.673,3.281,8.743,3.648l-0.046,7.021c-2.51-0.062-4.704-0.612-6.586-1.651c-1.882-1.041-3.618-2.679-5.209-4.911   v5.828h-6.104V66.017h6.563V96.49z"
   id="path101" />
</g>
<g
   id="g103">
	<path
   fill="#5889AA"
   d="M50.633,106.51h1.329v4.823c0,1.178,0.063,1.988,0.19,2.432c0.19,0.633,0.553,1.133,1.089,1.5   s1.174,0.551,1.916,0.551s1.371-0.18,1.888-0.537s0.874-0.828,1.07-1.41c0.133-0.398,0.2-1.244,0.2-2.535v-4.823h1.358v5.07   c0,1.425-0.166,2.497-0.499,3.219s-0.833,1.286-1.5,1.694c-0.668,0.408-1.505,0.613-2.512,0.613s-1.847-0.205-2.521-0.613   c-0.674-0.408-1.177-0.978-1.51-1.709c-0.332-0.73-0.498-1.83-0.498-3.299V106.51z"
   id="path105" />
	<path
   fill="#5889AA"
   d="M62.625,106.51h1.329v1.852c0.532-0.709,1.121-1.239,1.766-1.591s1.348-0.527,2.108-0.527   c0.772,0,1.458,0.197,2.056,0.59s1.04,0.92,1.325,1.586c0.285,0.664,0.427,1.699,0.427,3.104v5.318h-1.33v-4.928   c0-1.191-0.049-1.985-0.148-2.384c-0.154-0.684-0.449-1.198-0.886-1.543c-0.437-0.345-1.006-0.518-1.709-0.518   c-0.804,0-1.524,0.266-2.161,0.798c-0.636,0.531-1.056,1.189-1.258,1.975c-0.127,0.513-0.19,1.449-0.19,2.811v3.789h-1.329V106.51z   "
   id="path107" />
	<path
   fill="#5889AA"
   d="M85.062,107.64l-0.854,0.883c-0.711-0.689-1.406-1.035-2.084-1.035c-0.432,0-0.802,0.143-1.109,0.428   s-0.461,0.617-0.461,0.997c0,0.335,0.126,0.655,0.38,0.959c0.254,0.31,0.787,0.674,1.599,1.092c0.99,0.513,1.662,1.007,2.017,1.481   c0.349,0.48,0.523,1.021,0.523,1.623c0,0.849-0.298,1.566-0.894,2.156c-0.596,0.588-1.341,0.883-2.235,0.883   c-0.596,0-1.165-0.13-1.707-0.39c-0.542-0.259-0.99-0.617-1.345-1.073l0.835-0.949c0.679,0.766,1.399,1.148,2.16,1.148   c0.533,0,0.987-0.17,1.361-0.512c0.374-0.342,0.562-0.744,0.562-1.207c0-0.379-0.124-0.718-0.371-1.016   c-0.248-0.291-0.806-0.658-1.675-1.102c-0.933-0.48-1.567-0.955-1.903-1.424c-0.336-0.469-0.504-1.003-0.504-1.604   c0-0.785,0.268-1.437,0.804-1.956c0.536-0.52,1.213-0.779,2.031-0.779C83.141,106.243,84.099,106.709,85.062,107.64z"
   id="path109" />
	<path
   fill="#5889AA"
   d="M87.877,102.256c0.302,0,0.561,0.108,0.775,0.323c0.214,0.215,0.322,0.475,0.322,0.778   c0,0.298-0.107,0.554-0.322,0.769c-0.214,0.216-0.473,0.323-0.775,0.323c-0.296,0-0.552-0.107-0.766-0.323   c-0.214-0.215-0.321-0.471-0.321-0.769c0-0.304,0.107-0.563,0.321-0.778C87.326,102.364,87.581,102.256,87.877,102.256z    M87.217,106.51h1.33v10.331h-1.33V106.51z"
   id="path111" />
	<path
   fill="#5889AA"
   d="M92.468,102.674h1.329v3.836h2.108v1.149h-2.108v9.182h-1.329v-9.182h-1.813v-1.149h1.813V102.674z"
   id="path113" />
	<path
   fill="#5889AA"
   d="M106.597,113.413l1.121,0.588c-0.368,0.723-0.792,1.305-1.274,1.748c-0.481,0.442-1.023,0.779-1.625,1.011   s-1.283,0.347-2.043,0.347c-1.685,0-3.003-0.553-3.953-1.657c-0.951-1.104-1.426-2.353-1.426-3.745   c0-1.311,0.402-2.479,1.207-3.504c1.02-1.305,2.385-1.957,4.096-1.957c1.762,0,3.168,0.668,4.22,2.004   c0.748,0.943,1.128,2.121,1.141,3.532h-9.296c0.025,1.2,0.409,2.184,1.15,2.951c0.741,0.767,1.657,1.151,2.748,1.151   c0.526,0,1.038-0.092,1.535-0.275c0.498-0.182,0.92-0.426,1.269-0.728C105.814,114.576,106.191,114.087,106.597,113.413z    M106.597,110.63c-0.177-0.708-0.436-1.275-0.775-1.699s-0.788-0.766-1.345-1.025s-1.144-0.389-1.759-0.389   c-1.014,0-1.885,0.326-2.614,0.978c-0.532,0.475-0.935,1.187-1.208,2.136H106.597z"
   id="path115" />
	<path
   fill="#5889AA"
   d="M126.232,102.522v14.318h-1.311v-1.775c-0.557,0.677-1.182,1.186-1.875,1.527   c-0.693,0.342-1.451,0.514-2.274,0.514c-1.462,0-2.71-0.53-3.746-1.591c-1.035-1.06-1.552-2.351-1.552-3.869   c0-1.487,0.522-2.76,1.566-3.817c1.044-1.057,2.301-1.586,3.77-1.586c0.848,0,1.616,0.182,2.303,0.542   c0.687,0.36,1.29,0.901,1.809,1.624v-5.887H126.232z M120.92,107.526c-0.74,0-1.423,0.182-2.049,0.545s-1.124,0.874-1.494,1.531   c-0.37,0.658-0.555,1.354-0.555,2.087c0,0.728,0.187,1.423,0.56,2.087s0.874,1.18,1.503,1.551c0.629,0.369,1.304,0.555,2.025,0.555   c0.727,0,1.417-0.184,2.068-0.551c0.651-0.367,1.152-0.863,1.503-1.488c0.351-0.627,0.526-1.332,0.526-2.115   c0-1.195-0.394-2.194-1.181-2.998C123.04,107.927,122.07,107.526,120.92,107.526z"
   id="path117" />
	<path
   fill="#5889AA"
   d="M137.94,113.413l1.121,0.588c-0.368,0.723-0.792,1.305-1.274,1.748c-0.481,0.442-1.023,0.779-1.625,1.011   s-1.283,0.347-2.043,0.347c-1.685,0-3.003-0.553-3.953-1.657c-0.951-1.104-1.426-2.353-1.426-3.745   c0-1.311,0.402-2.479,1.207-3.504c1.02-1.305,2.385-1.957,4.096-1.957c1.762,0,3.168,0.668,4.22,2.004   c0.748,0.943,1.128,2.121,1.141,3.532h-9.296c0.025,1.2,0.409,2.184,1.15,2.951c0.741,0.767,1.657,1.151,2.748,1.151   c0.526,0,1.038-0.092,1.535-0.275c0.498-0.182,0.92-0.426,1.269-0.728C137.157,114.576,137.534,114.087,137.94,113.413z    M137.94,110.63c-0.177-0.708-0.436-1.275-0.775-1.699s-0.788-0.766-1.345-1.025s-1.144-0.389-1.759-0.389   c-1.014,0-1.885,0.326-2.614,0.978c-0.532,0.475-0.935,1.187-1.208,2.136H137.94z"
   id="path119" />
	<path
   fill="#5889AA"
   d="M147.064,102.522h1.33v14.318h-1.33V102.522z"
   id="path121" />
	<path
   fill="#5889AA"
   d="M161.45,106.51v10.331h-1.311v-1.775c-0.557,0.677-1.182,1.186-1.875,1.527   c-0.693,0.342-1.451,0.514-2.274,0.514c-1.462,0-2.711-0.53-3.746-1.591c-1.035-1.06-1.552-2.351-1.552-3.869   c0-1.487,0.522-2.76,1.566-3.817c1.044-1.057,2.301-1.586,3.77-1.586c0.848,0,1.616,0.182,2.303,0.542   c0.687,0.36,1.29,0.901,1.809,1.624v-1.899H161.45z M156.137,107.526c-0.74,0-1.423,0.182-2.049,0.545s-1.124,0.874-1.494,1.531   c-0.37,0.658-0.555,1.354-0.555,2.087c0,0.728,0.187,1.423,0.56,2.087s0.874,1.18,1.503,1.551c0.629,0.369,1.304,0.555,2.025,0.555   c0.728,0,1.417-0.184,2.068-0.551c0.651-0.367,1.152-0.863,1.503-1.488c0.351-0.627,0.526-1.332,0.526-2.115   c0-1.195-0.394-2.194-1.181-2.998C158.257,107.927,157.288,107.526,156.137,107.526z"
   id="path123" />
	<path
   fill="#333333"
   d="M170.043,116.841v-13.968h2.896c2.089,0,3.605,0.168,4.548,0.503c1.354,0.475,2.414,1.298,3.176,2.469   c0.763,1.172,1.144,2.567,1.144,4.188c0,1.399-0.302,2.631-0.907,3.693c-0.604,1.064-1.39,1.849-2.354,2.355   c-0.966,0.506-2.319,0.76-4.06,0.76H170.043z M171.382,115.521h1.614c1.931,0,3.27-0.12,4.017-0.36   c1.051-0.342,1.877-0.956,2.478-1.845c0.602-0.889,0.902-1.976,0.902-3.26c0-1.347-0.326-2.498-0.978-3.453   s-1.561-1.609-2.725-1.964c-0.874-0.265-2.313-0.398-4.32-0.398h-0.987V115.521z"
   id="path125" />
	<path
   fill="#333333"
   d="M184.755,102.256c0.302,0,0.561,0.108,0.775,0.323c0.214,0.215,0.322,0.475,0.322,0.778   c0,0.298-0.107,0.554-0.322,0.769c-0.214,0.216-0.473,0.323-0.775,0.323c-0.296,0-0.552-0.107-0.766-0.323   c-0.214-0.215-0.321-0.471-0.321-0.769c0-0.304,0.107-0.563,0.321-0.778C184.204,102.364,184.459,102.256,184.755,102.256z    M184.095,106.51h1.33v10.331h-1.33V106.51z"
   id="path127" />
	<path
   fill="#333333"
   d="M187.685,106.51h1.358v1.51c0.405-0.595,0.832-1.04,1.282-1.334c0.449-0.294,0.917-0.442,1.405-0.442   c0.367,0,0.76,0.117,1.177,0.352l-0.693,1.121c-0.279-0.121-0.513-0.181-0.703-0.181c-0.443,0-0.871,0.183-1.282,0.546   c-0.411,0.364-0.725,0.93-0.94,1.695c-0.165,0.588-0.247,1.778-0.247,3.57v3.494h-1.358V106.51z"
   id="path129" />
	<path
   fill="#333333"
   d="M202.734,113.413l1.121,0.588c-0.368,0.723-0.792,1.305-1.274,1.748c-0.481,0.442-1.023,0.779-1.625,1.011   s-1.283,0.347-2.043,0.347c-1.685,0-3.003-0.553-3.953-1.657c-0.951-1.104-1.426-2.353-1.426-3.745   c0-1.311,0.402-2.479,1.207-3.504c1.02-1.305,2.385-1.957,4.096-1.957c1.762,0,3.168,0.668,4.22,2.004   c0.748,0.943,1.128,2.121,1.141,3.532h-9.296c0.025,1.2,0.409,2.184,1.15,2.951c0.741,0.767,1.657,1.151,2.748,1.151   c0.526,0,1.038-0.092,1.535-0.275c0.498-0.182,0.92-0.426,1.269-0.728C201.952,114.576,202.329,114.087,202.734,113.413z    M202.734,110.63c-0.177-0.708-0.436-1.275-0.775-1.699s-0.788-0.766-1.345-1.025s-1.144-0.389-1.759-0.389   c-1.014,0-1.885,0.326-2.614,0.978c-0.532,0.475-0.935,1.187-1.208,2.136H202.734z"
   id="path131" />
	<path
   fill="#333333"
   d="M216.701,108.655l-1.054,0.655c-0.911-1.209-2.153-1.813-3.728-1.813c-1.258,0-2.303,0.404-3.134,1.215   c-0.832,0.809-1.247,1.792-1.247,2.949c0,0.752,0.191,1.461,0.574,2.124c0.382,0.664,0.907,1.179,1.574,1.546   c0.667,0.367,1.415,0.551,2.243,0.551c1.518,0,2.757-0.605,3.718-1.814l1.054,0.693c-0.494,0.744-1.157,1.32-1.989,1.73   c-0.832,0.41-1.78,0.615-2.844,0.615c-1.633,0-2.988-0.52-4.063-1.558c-1.076-1.038-1.614-2.301-1.614-3.788   c0-1,0.251-1.93,0.755-2.787c0.503-0.857,1.195-1.527,2.075-2.008c0.879-0.481,1.864-0.723,2.953-0.723   c0.684,0,1.344,0.105,1.98,0.314s1.176,0.48,1.619,0.816C216.015,107.71,216.391,108.137,216.701,108.655z"
   id="path133" />
	<path
   fill="#333333"
   d="M220.414,102.674h1.329v3.836h2.108v1.149h-2.108v9.182h-1.329v-9.182h-1.813v-1.149h1.813V102.674z"
   id="path135" />
	<path
   fill="#333333"
   d="M226.306,102.256c0.302,0,0.561,0.108,0.775,0.323c0.214,0.215,0.322,0.475,0.322,0.778   c0,0.298-0.107,0.554-0.322,0.769c-0.214,0.216-0.473,0.323-0.775,0.323c-0.296,0-0.552-0.107-0.766-0.323   c-0.214-0.215-0.321-0.471-0.321-0.769c0-0.304,0.107-0.563,0.321-0.778C225.754,102.364,226.009,102.256,226.306,102.256z    M225.646,106.51h1.33v10.331h-1.33V106.51z"
   id="path137" />
	<path
   fill="#333333"
   d="M234.628,106.243c1.592,0,2.911,0.576,3.957,1.729c0.951,1.051,1.427,2.295,1.427,3.732   c0,1.443-0.502,2.704-1.508,3.783c-1.005,1.079-2.297,1.619-3.876,1.619c-1.585,0-2.88-0.54-3.885-1.619   c-1.005-1.079-1.508-2.34-1.508-3.783c0-1.432,0.476-2.672,1.427-3.723C231.708,106.823,233.03,106.243,234.628,106.243z    M234.623,107.544c-1.105,0-2.055,0.409-2.849,1.226c-0.794,0.816-1.191,1.804-1.191,2.962c0,0.748,0.181,1.443,0.543,2.09   c0.362,0.646,0.851,1.144,1.467,1.495c0.616,0.351,1.292,0.526,2.029,0.526s1.414-0.176,2.03-0.526   c0.616-0.352,1.105-0.85,1.467-1.495c0.362-0.646,0.543-1.342,0.543-2.09c0-1.158-0.399-2.146-1.196-2.962   C236.67,107.953,235.722,107.544,234.623,107.544z"
   id="path139" />
	<path
   fill="#333333"
   d="M242.471,106.51h1.329v1.852c0.532-0.709,1.121-1.239,1.766-1.591s1.348-0.527,2.108-0.527   c0.772,0,1.458,0.197,2.056,0.59s1.04,0.92,1.325,1.586c0.285,0.664,0.427,1.699,0.427,3.104v5.318h-1.33v-4.928   c0-1.191-0.049-1.985-0.148-2.384c-0.154-0.684-0.449-1.198-0.886-1.543c-0.437-0.345-1.006-0.518-1.709-0.518   c-0.804,0-1.524,0.266-2.161,0.798c-0.636,0.531-1.056,1.189-1.258,1.975c-0.127,0.513-0.19,1.449-0.19,2.811v3.789h-1.329V106.51z   "
   id="path141" />
	<path
   fill="#333333"
   d="M268.621,106.51h1.329v8.231c0,1.45-0.126,2.511-0.38,3.182c-0.348,0.949-0.953,1.681-1.813,2.193   s-1.896,0.77-3.105,0.77c-0.886,0-1.682-0.126-2.388-0.377c-0.706-0.25-1.28-0.587-1.724-1.01   c-0.443-0.422-0.851-1.039-1.225-1.852h1.443c0.393,0.684,0.9,1.189,1.521,1.52c0.621,0.328,1.391,0.493,2.31,0.493   c0.906,0,1.671-0.169,2.296-0.506c0.624-0.338,1.069-0.763,1.335-1.272c0.266-0.512,0.399-1.336,0.399-2.475v-0.532   c-0.5,0.633-1.112,1.118-1.834,1.458c-0.723,0.338-1.489,0.508-2.3,0.508c-0.95,0-1.844-0.236-2.68-0.708s-1.483-1.106-1.939-1.903   c-0.456-0.798-0.684-1.674-0.684-2.631c0-0.955,0.237-1.846,0.713-2.672c0.475-0.826,1.132-1.48,1.972-1.961   c0.839-0.481,1.725-0.723,2.656-0.723c0.773,0,1.494,0.16,2.163,0.48c0.668,0.319,1.313,0.846,1.934,1.58V106.51z M264.699,107.526   c-0.753,0-1.453,0.182-2.099,0.545c-0.646,0.364-1.152,0.867-1.519,1.51c-0.367,0.643-0.551,1.338-0.551,2.084   c0,1.134,0.38,2.07,1.139,2.811c0.76,0.741,1.744,1.111,2.953,1.111c1.222,0,2.205-0.367,2.948-1.102s1.116-1.699,1.116-2.896   c0-0.777-0.171-1.473-0.513-2.084c-0.342-0.61-0.826-1.093-1.453-1.447C266.095,107.703,265.421,107.526,264.699,107.526z"
   id="path143" />
	<path
   fill="#333333"
   d="M281.496,113.413l1.12,0.588c-0.367,0.723-0.791,1.305-1.273,1.748c-0.481,0.442-1.023,0.779-1.625,1.011   s-1.283,0.347-2.043,0.347c-1.686,0-3.003-0.553-3.954-1.657c-0.951-1.104-1.426-2.353-1.426-3.745   c0-1.311,0.402-2.479,1.207-3.504c1.02-1.305,2.385-1.957,4.096-1.957c1.762,0,3.168,0.668,4.219,2.004   c0.748,0.943,1.129,2.121,1.141,3.532h-9.295c0.025,1.2,0.409,2.184,1.15,2.951c0.741,0.767,1.657,1.151,2.748,1.151   c0.526,0,1.038-0.092,1.535-0.275c0.497-0.182,0.921-0.426,1.269-0.728C280.713,114.576,281.09,114.087,281.496,113.413z    M281.496,110.63c-0.177-0.708-0.436-1.275-0.774-1.699c-0.34-0.424-0.788-0.766-1.346-1.025s-1.145-0.389-1.759-0.389   c-1.015,0-1.886,0.326-2.614,0.978c-0.532,0.475-0.935,1.187-1.208,2.136H281.496z M278.295,101.667h2.042l-2.802,2.925h-1.31   L278.295,101.667z"
   id="path145" />
	<path
   fill="#333333"
   d="M285.436,106.51h1.329v1.852c0.532-0.709,1.12-1.239,1.767-1.591c0.645-0.352,1.348-0.527,2.107-0.527   c0.771,0,1.457,0.197,2.056,0.59s1.04,0.92,1.325,1.586c0.284,0.664,0.427,1.699,0.427,3.104v5.318h-1.329v-4.928   c0-1.191-0.05-1.985-0.148-2.384c-0.154-0.684-0.449-1.198-0.887-1.543c-0.436-0.345-1.006-0.518-1.709-0.518   c-0.804,0-1.523,0.266-2.16,0.798c-0.637,0.531-1.056,1.189-1.258,1.975c-0.127,0.513-0.19,1.449-0.19,2.811v3.789h-1.329V106.51z"
   id="path147" />
	<path
   fill="#333333"
   d="M305.993,113.413l1.121,0.588c-0.368,0.723-0.793,1.305-1.274,1.748c-0.481,0.442-1.022,0.779-1.625,1.011   s-1.283,0.347-2.044,0.347c-1.685,0-3.002-0.553-3.953-1.657c-0.95-1.104-1.426-2.353-1.426-3.745c0-1.311,0.402-2.479,1.207-3.504   c1.021-1.305,2.386-1.957,4.096-1.957c1.762,0,3.168,0.668,4.221,2.004c0.747,0.943,1.127,2.121,1.141,3.532h-9.297   c0.025,1.2,0.409,2.184,1.15,2.951c0.742,0.767,1.658,1.151,2.748,1.151c0.525,0,1.037-0.092,1.535-0.275   c0.498-0.182,0.92-0.426,1.27-0.728C305.209,114.576,305.586,114.087,305.993,113.413z M305.993,110.63   c-0.178-0.708-0.436-1.275-0.775-1.699c-0.339-0.424-0.787-0.766-1.345-1.025s-1.144-0.389-1.759-0.389   c-1.014,0-1.885,0.326-2.614,0.978c-0.532,0.475-0.935,1.187-1.208,2.136H305.993z M302.793,101.667h2.041l-2.801,2.925h-1.311   L302.793,101.667z"
   id="path149" />
	<path
   fill="#333333"
   d="M309.43,106.51h1.357v1.51c0.404-0.595,0.832-1.04,1.281-1.334s0.918-0.442,1.406-0.442   c0.367,0,0.76,0.117,1.177,0.352l-0.692,1.121c-0.279-0.121-0.514-0.181-0.703-0.181c-0.443,0-0.871,0.183-1.282,0.546   c-0.411,0.364-0.725,0.93-0.94,1.695c-0.164,0.588-0.246,1.778-0.246,3.57v3.494h-1.357V106.51z"
   id="path151" />
	<path
   fill="#333333"
   d="M326.075,106.51v10.331h-1.311v-1.775c-0.557,0.677-1.182,1.186-1.875,1.527s-1.451,0.514-2.273,0.514   c-1.463,0-2.711-0.53-3.746-1.591c-1.035-1.06-1.553-2.351-1.553-3.869c0-1.487,0.521-2.76,1.566-3.817   c1.045-1.057,2.301-1.586,3.77-1.586c0.848,0,1.615,0.182,2.303,0.542c0.687,0.36,1.289,0.901,1.809,1.624v-1.899H326.075z    M320.762,107.526c-0.74,0-1.423,0.182-2.049,0.545s-1.123,0.874-1.494,1.531c-0.369,0.658-0.555,1.354-0.555,2.087   c0,0.728,0.188,1.423,0.561,2.087s0.873,1.18,1.502,1.551c0.63,0.369,1.305,0.555,2.025,0.555c0.728,0,1.416-0.184,2.068-0.551   c0.65-0.367,1.151-0.863,1.502-1.488c0.352-0.627,0.527-1.332,0.527-2.115c0-1.195-0.395-2.194-1.182-2.998   C322.881,107.927,321.913,107.526,320.762,107.526z"
   id="path153" />
	<path
   fill="#333333"
   d="M328.866,102.522h1.33v14.318h-1.33V102.522z"
   id="path155" />
	<path
   fill="#333333"
   d="M341.657,113.413l1.12,0.588c-0.368,0.723-0.792,1.305-1.274,1.748c-0.48,0.442-1.022,0.779-1.625,1.011   c-0.602,0.231-1.283,0.347-2.043,0.347c-1.686,0-3.003-0.553-3.953-1.657c-0.951-1.104-1.426-2.353-1.426-3.745   c0-1.311,0.402-2.479,1.207-3.504c1.02-1.305,2.385-1.957,4.096-1.957c1.762,0,3.168,0.668,4.22,2.004   c0.747,0.943,1.128,2.121,1.141,3.532h-9.296c0.025,1.2,0.408,2.184,1.15,2.951c0.741,0.767,1.657,1.151,2.748,1.151   c0.525,0,1.037-0.092,1.535-0.275c0.497-0.182,0.92-0.426,1.269-0.728C340.874,114.576,341.25,114.087,341.657,113.413z    M341.657,110.63c-0.178-0.708-0.436-1.275-0.775-1.699s-0.787-0.766-1.346-1.025c-0.557-0.26-1.144-0.389-1.758-0.389   c-1.015,0-1.886,0.326-2.615,0.978c-0.531,0.475-0.935,1.187-1.207,2.136H341.657z"
   id="path157" />
	<path
   fill="#333333"
   d="M361.292,102.522v14.318h-1.311v-1.775c-0.557,0.677-1.182,1.186-1.875,1.527s-1.451,0.514-2.273,0.514   c-1.463,0-2.711-0.53-3.746-1.591c-1.035-1.06-1.553-2.351-1.553-3.869c0-1.487,0.522-2.76,1.566-3.817   c1.045-1.057,2.301-1.586,3.77-1.586c0.849,0,1.616,0.182,2.303,0.542c0.688,0.36,1.29,0.901,1.809,1.624v-5.887H361.292z    M355.979,107.526c-0.739,0-1.422,0.182-2.049,0.545c-0.625,0.363-1.123,0.874-1.493,1.531c-0.37,0.658-0.555,1.354-0.555,2.087   c0,0.728,0.187,1.423,0.56,2.087s0.874,1.18,1.503,1.551c0.63,0.369,1.304,0.555,2.024,0.555c0.728,0,1.417-0.184,2.068-0.551   c0.65-0.367,1.152-0.863,1.503-1.488c0.351-0.627,0.526-1.332,0.526-2.115c0-1.195-0.394-2.194-1.181-2.998   C358.099,107.927,357.129,107.526,355.979,107.526z"
   id="path159" />
	<path
   fill="#333333"
   d="M373,113.413l1.12,0.588c-0.367,0.723-0.791,1.305-1.273,1.748c-0.481,0.442-1.023,0.779-1.625,1.011   s-1.283,0.347-2.043,0.347c-1.686,0-3.004-0.553-3.953-1.657c-0.951-1.104-1.426-2.353-1.426-3.745   c0-1.311,0.402-2.479,1.207-3.504c1.02-1.305,2.385-1.957,4.096-1.957c1.762,0,3.168,0.668,4.219,2.004   c0.748,0.943,1.129,2.121,1.141,3.532h-9.295c0.025,1.2,0.408,2.184,1.15,2.951c0.74,0.767,1.656,1.151,2.747,1.151   c0.526,0,1.038-0.092,1.535-0.275c0.497-0.182,0.921-0.426,1.269-0.728C372.217,114.576,372.594,114.087,373,113.413z M373,110.63   c-0.177-0.708-0.436-1.275-0.774-1.699c-0.34-0.424-0.788-0.766-1.346-1.025s-1.145-0.389-1.759-0.389   c-1.015,0-1.886,0.326-2.614,0.978c-0.532,0.475-0.936,1.187-1.207,2.136H373z"
   id="path161" />
	<path
   fill="#333333"
   d="M382.133,107.64l-0.854,0.883c-0.711-0.689-1.405-1.035-2.085-1.035c-0.432,0-0.801,0.143-1.109,0.428   c-0.307,0.285-0.461,0.617-0.461,0.997c0,0.335,0.127,0.655,0.381,0.959c0.254,0.31,0.786,0.674,1.598,1.092   c0.99,0.513,1.662,1.007,2.018,1.481c0.35,0.48,0.523,1.021,0.523,1.623c0,0.849-0.299,1.566-0.895,2.156   c-0.596,0.588-1.34,0.883-2.234,0.883c-0.596,0-1.165-0.13-1.707-0.39c-0.542-0.259-0.99-0.617-1.346-1.073l0.836-0.949   c0.679,0.766,1.398,1.148,2.16,1.148c0.533,0,0.986-0.17,1.361-0.512c0.374-0.342,0.562-0.744,0.562-1.207   c0-0.379-0.124-0.718-0.371-1.016c-0.247-0.291-0.806-0.658-1.675-1.102c-0.933-0.48-1.566-0.955-1.903-1.424   c-0.336-0.469-0.505-1.003-0.505-1.604c0-0.785,0.269-1.437,0.805-1.956c0.535-0.52,1.213-0.779,2.03-0.779   C380.212,106.243,381.17,106.709,382.133,107.64z"
   id="path163" />
	<path
   fill="#333333"
   d="M390.09,102.873h6.998v1.367h-5.603v4.378h5.603v1.367h-5.603v6.855h-1.396V102.873z"
   id="path165" />
	<path
   fill="#333333"
   d="M399.761,102.256c0.302,0,0.562,0.108,0.774,0.323c0.215,0.215,0.322,0.475,0.322,0.778   c0,0.298-0.107,0.554-0.322,0.769c-0.213,0.216-0.473,0.323-0.774,0.323c-0.296,0-0.552-0.107-0.767-0.323   c-0.213-0.215-0.32-0.471-0.32-0.769c0-0.304,0.107-0.563,0.32-0.778C399.209,102.364,399.465,102.256,399.761,102.256z    M399.101,106.51h1.329v10.331h-1.329V106.51z"
   id="path167" />
	<path
   fill="#333333"
   d="M403.194,106.51h1.329v1.852c0.532-0.709,1.12-1.239,1.767-1.591c0.645-0.352,1.348-0.527,2.107-0.527   c0.771,0,1.457,0.197,2.056,0.59s1.04,0.92,1.325,1.586c0.284,0.664,0.427,1.699,0.427,3.104v5.318h-1.329v-4.928   c0-1.191-0.05-1.985-0.148-2.384c-0.154-0.684-0.449-1.198-0.887-1.543c-0.436-0.345-1.006-0.518-1.709-0.518   c-0.804,0-1.523,0.266-2.16,0.798c-0.637,0.531-1.056,1.189-1.258,1.975c-0.127,0.513-0.19,1.449-0.19,2.811v3.789h-1.329V106.51z"
   id="path169" />
	<path
   fill="#333333"
   d="M425.346,106.51v10.331h-1.311v-1.775c-0.558,0.677-1.183,1.186-1.875,1.527   c-0.693,0.342-1.451,0.514-2.274,0.514c-1.462,0-2.711-0.53-3.746-1.591c-1.034-1.06-1.552-2.351-1.552-3.869   c0-1.487,0.521-2.76,1.566-3.817c1.044-1.057,2.301-1.586,3.77-1.586c0.848,0,1.615,0.182,2.303,0.542   c0.686,0.36,1.289,0.901,1.809,1.624v-1.899H425.346z M420.034,107.526c-0.74,0-1.424,0.182-2.049,0.545   c-0.627,0.363-1.124,0.874-1.494,1.531c-0.369,0.658-0.555,1.354-0.555,2.087c0,0.728,0.187,1.423,0.56,2.087   s0.874,1.18,1.503,1.551c0.629,0.369,1.305,0.555,2.025,0.555c0.727,0,1.416-0.184,2.067-0.551s1.151-0.863,1.503-1.488   c0.352-0.627,0.526-1.332,0.526-2.115c0-1.195-0.394-2.194-1.181-2.998C422.153,107.927,421.184,107.526,420.034,107.526z"
   id="path171" />
	<path
   fill="#333333"
   d="M428.336,106.51h1.33v1.852c0.531-0.709,1.12-1.239,1.766-1.591s1.348-0.527,2.107-0.527   c0.772,0,1.458,0.197,2.057,0.59c0.598,0.393,1.039,0.92,1.324,1.586c0.285,0.664,0.428,1.699,0.428,3.104v5.318h-1.33v-4.928   c0-1.191-0.049-1.985-0.148-2.384c-0.153-0.684-0.449-1.198-0.886-1.543s-1.007-0.518-1.709-0.518   c-0.804,0-1.524,0.266-2.161,0.798c-0.636,0.531-1.055,1.189-1.258,1.975c-0.127,0.513-0.189,1.449-0.189,2.811v3.789h-1.33V106.51   z"
   id="path173" />
	<path
   fill="#333333"
   d="M450.223,108.655l-1.055,0.655c-0.91-1.209-2.152-1.813-3.727-1.813c-1.258,0-2.303,0.404-3.135,1.215   c-0.832,0.809-1.247,1.792-1.247,2.949c0,0.752,0.191,1.461,0.573,2.124c0.383,0.664,0.908,1.179,1.574,1.546   c0.668,0.367,1.416,0.551,2.244,0.551c1.518,0,2.756-0.605,3.717-1.814l1.055,0.693c-0.494,0.744-1.157,1.32-1.99,1.73   c-0.832,0.41-1.779,0.615-2.844,0.615c-1.633,0-2.987-0.52-4.063-1.558c-1.076-1.038-1.615-2.301-1.615-3.788   c0-1,0.252-1.93,0.756-2.787c0.502-0.857,1.194-1.527,2.074-2.008c0.879-0.481,1.863-0.723,2.953-0.723   c0.684,0,1.344,0.105,1.979,0.314s1.176,0.48,1.618,0.816C449.536,107.71,449.913,108.137,450.223,108.655z"
   id="path175" />
	<path
   fill="#333333"
   d="M461.475,113.413l1.12,0.588c-0.368,0.723-0.792,1.305-1.274,1.748c-0.48,0.442-1.022,0.779-1.625,1.011   c-0.602,0.231-1.283,0.347-2.043,0.347c-1.686,0-3.003-0.553-3.953-1.657c-0.951-1.104-1.426-2.353-1.426-3.745   c0-1.311,0.402-2.479,1.207-3.504c1.02-1.305,2.385-1.957,4.096-1.957c1.762,0,3.168,0.668,4.22,2.004   c0.747,0.943,1.128,2.121,1.141,3.532h-9.296c0.025,1.2,0.408,2.184,1.15,2.951c0.741,0.767,1.657,1.151,2.748,1.151   c0.525,0,1.037-0.092,1.535-0.275c0.497-0.182,0.92-0.426,1.269-0.728C460.692,114.576,461.069,114.087,461.475,113.413z    M461.475,110.63c-0.178-0.708-0.436-1.275-0.775-1.699s-0.787-0.766-1.346-1.025c-0.557-0.26-1.144-0.389-1.758-0.389   c-1.015,0-1.886,0.326-2.615,0.978c-0.531,0.475-0.935,1.187-1.207,2.136H461.475z"
   id="path177" />
	<path
   fill="#333333"
   d="M470.608,107.64l-0.854,0.883c-0.711-0.689-1.406-1.035-2.085-1.035c-0.432,0-0.802,0.143-1.109,0.428   s-0.462,0.617-0.462,0.997c0,0.335,0.127,0.655,0.381,0.959c0.254,0.31,0.787,0.674,1.599,1.092   c0.989,0.513,1.662,1.007,2.017,1.481c0.35,0.48,0.523,1.021,0.523,1.623c0,0.849-0.298,1.566-0.894,2.156   c-0.597,0.588-1.341,0.883-2.235,0.883c-0.596,0-1.164-0.13-1.707-0.39c-0.541-0.259-0.99-0.617-1.345-1.073l0.835-0.949   c0.68,0.766,1.399,1.148,2.16,1.148c0.533,0,0.987-0.17,1.361-0.512c0.375-0.342,0.563-0.744,0.563-1.207   c0-0.379-0.125-0.718-0.371-1.016c-0.248-0.291-0.807-0.658-1.676-1.102c-0.932-0.48-1.566-0.955-1.902-1.424   s-0.505-1.003-0.505-1.604c0-0.785,0.269-1.437,0.804-1.956c0.536-0.52,1.213-0.779,2.031-0.779   C468.688,106.243,469.645,106.709,470.608,107.64z"
   id="path179" />
	<path
   fill="#333333"
   d="M478.366,106.51h1.33v1.899c0.524-0.723,1.128-1.264,1.811-1.624c0.684-0.36,1.445-0.542,2.287-0.542   c1.467,0,2.722,0.529,3.766,1.586c1.043,1.058,1.564,2.33,1.564,3.817c0,1.519-0.517,2.81-1.551,3.869   c-1.033,1.061-2.281,1.591-3.742,1.591c-0.822,0-1.578-0.172-2.267-0.514c-0.689-0.342-1.313-0.851-1.868-1.527v5.554h-1.33V106.51   z M483.683,107.526c-1.149,0-2.117,0.4-2.903,1.203c-0.787,0.804-1.18,1.803-1.18,2.998c0,0.783,0.176,1.488,0.525,2.115   c0.352,0.625,0.854,1.121,1.507,1.488s1.343,0.551,2.069,0.551c0.715,0,1.385-0.186,2.014-0.555   c0.629-0.371,1.129-0.887,1.502-1.551c0.372-0.664,0.559-1.359,0.559-2.087c0-0.733-0.186-1.429-0.555-2.087   c-0.369-0.657-0.867-1.168-1.492-1.531S484.422,107.526,483.683,107.526z"
   id="path181" />
	<path
   fill="#333333"
   d="M491.441,106.51h1.329v4.823c0,1.178,0.063,1.988,0.189,2.432c0.191,0.633,0.554,1.133,1.09,1.5   c0.535,0.367,1.174,0.551,1.916,0.551c0.741,0,1.371-0.18,1.887-0.537c0.518-0.357,0.874-0.828,1.07-1.41   c0.133-0.398,0.199-1.244,0.199-2.535v-4.823h1.358v5.07c0,1.425-0.166,2.497-0.499,3.219c-0.332,0.722-0.832,1.286-1.5,1.694   s-1.505,0.613-2.512,0.613c-1.006,0-1.846-0.205-2.521-0.613c-0.674-0.408-1.177-0.978-1.51-1.709   c-0.332-0.73-0.498-1.83-0.498-3.299V106.51z"
   id="path183" />
	<path
   fill="#333333"
   d="M503.518,116.841v-14.318h1.33v5.763c0.556-0.684,1.179-1.194,1.868-1.533s1.444-0.509,2.267-0.509   c1.461,0,2.709,0.531,3.742,1.592c1.034,1.06,1.551,2.346,1.551,3.859c0,1.494-0.521,2.77-1.564,3.826   c-1.044,1.057-2.299,1.586-3.766,1.586c-0.842,0-1.604-0.181-2.286-0.541c-0.683-0.361-1.287-0.902-1.812-1.624v1.899H503.518z    M508.835,115.824c0.739,0,1.421-0.182,2.046-0.546c0.625-0.363,1.123-0.875,1.492-1.533s0.555-1.354,0.555-2.089   s-0.187-1.435-0.559-2.099c-0.373-0.664-0.873-1.182-1.502-1.553c-0.629-0.37-1.299-0.555-2.014-0.555   c-0.726,0-1.416,0.185-2.069,0.555c-0.653,0.371-1.155,0.869-1.507,1.496c-0.35,0.627-0.525,1.332-0.525,2.117   c0,1.196,0.393,2.196,1.18,3C506.718,115.423,507.686,115.824,508.835,115.824z"
   id="path185" />
	<path
   fill="#333333"
   d="M516.499,102.522h1.329v14.318h-1.329V102.522z"
   id="path187" />
	<path
   fill="#333333"
   d="M521.051,102.256c0.303,0,0.561,0.108,0.775,0.323c0.214,0.215,0.321,0.475,0.321,0.778   c0,0.298-0.107,0.554-0.321,0.769c-0.215,0.216-0.473,0.323-0.775,0.323c-0.297,0-0.552-0.107-0.766-0.323   c-0.215-0.215-0.322-0.471-0.322-0.769c0-0.304,0.107-0.563,0.322-0.778C520.5,102.364,520.754,102.256,521.051,102.256z    M520.391,106.51h1.33v10.331h-1.33V106.51z"
   id="path189" />
	<path
   fill="#333333"
   d="M534.766,106.51v14.109h-1.31v-5.554c-0.558,0.677-1.183,1.186-1.876,1.527   c-0.692,0.342-1.451,0.514-2.273,0.514c-1.463,0-2.711-0.53-3.746-1.591c-1.035-1.06-1.553-2.351-1.553-3.869   c0-1.487,0.523-2.76,1.567-3.817c1.044-1.057,2.301-1.586,3.77-1.586c0.849,0,1.616,0.182,2.302,0.542   c0.688,0.36,1.291,0.901,1.81,1.624v-1.899H534.766z M529.454,107.526c-0.738,0-1.422,0.182-2.048,0.545s-1.124,0.874-1.493,1.531   c-0.371,0.658-0.555,1.354-0.555,2.087c0,0.728,0.186,1.423,0.559,2.087s0.875,1.18,1.504,1.551   c0.629,0.369,1.304,0.555,2.024,0.555c0.728,0,1.416-0.184,2.067-0.551s1.152-0.863,1.504-1.488   c0.35-0.627,0.525-1.332,0.525-2.115c0-1.195-0.393-2.194-1.18-2.998C531.574,107.927,530.605,107.526,529.454,107.526z"
   id="path191" />
	<path
   fill="#333333"
   d="M537.578,106.51h1.329v4.823c0,1.178,0.063,1.988,0.189,2.432c0.191,0.633,0.554,1.133,1.09,1.5   c0.535,0.367,1.174,0.551,1.916,0.551c0.741,0,1.371-0.18,1.887-0.537c0.518-0.357,0.874-0.828,1.07-1.41   c0.133-0.398,0.199-1.244,0.199-2.535v-4.823h1.358v5.07c0,1.425-0.166,2.497-0.499,3.219c-0.332,0.722-0.832,1.286-1.5,1.694   s-1.505,0.613-2.512,0.613c-1.006,0-1.846-0.205-2.521-0.613c-0.674-0.408-1.177-0.978-1.51-1.709   c-0.332-0.73-0.498-1.83-0.498-3.299V106.51z"
   id="path193" />
	<path
   fill="#333333"
   d="M558.267,113.413l1.12,0.588c-0.367,0.723-0.791,1.305-1.273,1.748c-0.481,0.442-1.023,0.779-1.625,1.011   s-1.283,0.347-2.043,0.347c-1.686,0-3.004-0.553-3.953-1.657c-0.951-1.104-1.426-2.353-1.426-3.745   c0-1.311,0.402-2.479,1.207-3.504c1.02-1.305,2.385-1.957,4.096-1.957c1.762,0,3.168,0.668,4.219,2.004   c0.748,0.943,1.129,2.121,1.141,3.532h-9.295c0.025,1.2,0.408,2.184,1.15,2.951c0.74,0.767,1.656,1.151,2.747,1.151   c0.526,0,1.038-0.092,1.535-0.275c0.497-0.182,0.921-0.426,1.269-0.728C557.485,114.576,557.862,114.087,558.267,113.413z    M558.267,110.63c-0.177-0.708-0.436-1.275-0.774-1.699c-0.34-0.424-0.788-0.766-1.346-1.025s-1.145-0.389-1.759-0.389   c-1.015,0-1.886,0.326-2.614,0.978c-0.532,0.475-0.936,1.187-1.207,2.136H558.267z"
   id="path195" />
	<path
   fill="#333333"
   d="M567.401,107.64l-0.854,0.883c-0.711-0.689-1.405-1.035-2.085-1.035c-0.432,0-0.801,0.143-1.109,0.428   c-0.307,0.285-0.461,0.617-0.461,0.997c0,0.335,0.127,0.655,0.381,0.959c0.254,0.31,0.786,0.674,1.598,1.092   c0.99,0.513,1.662,1.007,2.018,1.481c0.35,0.48,0.523,1.021,0.523,1.623c0,0.849-0.299,1.566-0.895,2.156   c-0.596,0.588-1.34,0.883-2.234,0.883c-0.596,0-1.165-0.13-1.707-0.39c-0.542-0.259-0.99-0.617-1.346-1.073l0.836-0.949   c0.679,0.766,1.398,1.148,2.16,1.148c0.533,0,0.986-0.17,1.361-0.512c0.374-0.342,0.562-0.744,0.562-1.207   c0-0.379-0.124-0.718-0.371-1.016c-0.247-0.291-0.806-0.658-1.675-1.102c-0.933-0.48-1.566-0.955-1.903-1.424   c-0.336-0.469-0.505-1.003-0.505-1.604c0-0.785,0.269-1.437,0.805-1.956c0.535-0.52,1.213-0.779,2.03-0.779   C565.48,106.243,566.438,106.709,567.401,107.64z"
   id="path197" />
</g>

<g
   id="g201">
	<path
   d="M6.471,10.417H0V0h6.471V10.417z M0,66.82V16.338h6.471V66.82H0z"
   id="path203"
   fill="#0083AE" />
	<path
   d="M56.586,24.231c2.049-2.906,4.596-5.117,7.641-6.632c3.044-1.514,6.448-2.271,10.211-2.271   c6.853,0,11.84,2.058,14.961,6.172c3.121,4.116,4.681,10.732,4.681,19.849V66.82h-6.195V40.019c0-6.669-1.102-11.419-3.304-14.25   c-2.203-2.83-5.798-4.245-10.785-4.245c-2.876,0-5.408,0.59-7.595,1.767c-2.188,1.178-3.924,2.868-5.208,5.071   c-0.765,1.376-1.316,2.945-1.652,4.704c-0.337,1.759-0.505,4.826-0.505,9.201V66.82h-6.104V38.55   c0-5.813-1.178-10.104-3.534-12.873c-2.356-2.769-5.966-4.153-10.831-4.153c-2.937,0-5.515,0.59-7.733,1.767   c-2.219,1.178-3.97,2.868-5.254,5.071c-0.796,1.376-1.354,2.945-1.675,4.704s-0.482,4.826-0.482,9.201V66.82h-6.379V16.338h6.379   v5.736c1.928-2.233,4.199-3.916,6.815-5.048c2.616-1.132,5.576-1.698,8.88-1.698c3.824,0,7.312,0.803,10.463,2.409   C52.531,19.344,54.934,21.509,56.586,24.231z"
   id="path205"
   fill="#0083AE" />
	<path
   d="M104.269,16.338h6.379v8.261c1.836-2.846,4.459-5.117,7.871-6.815c3.411-1.698,7.044-2.547,10.899-2.547   c7.618,0,13.929,2.532,18.931,7.595c5.002,5.064,7.503,11.389,7.503,18.977c0,7.405-2.471,13.646-7.412,18.725   c-4.941,5.079-11.114,7.618-18.518,7.618c-4.1,0-7.794-0.795-11.083-2.386c-3.289-1.59-6.02-3.901-8.192-6.93v3.488v7.526v13.309   h-6.379V16.338z M110.647,41.257c0,5.752,1.896,10.67,5.691,14.755c3.793,4.084,8.261,6.126,13.4,6.126   c5.293,0,9.836-1.935,13.63-5.805c3.793-3.87,5.69-8.62,5.69-14.25c0-5.904-1.904-10.854-5.713-14.846s-8.421-5.989-13.837-5.989   c-4.987,0-9.378,2.004-13.171,6.012C112.544,31.269,110.647,35.934,110.647,41.257z"
   id="path207"
   fill="#0083AE" />
	<path
   d="M160.9,41.625c0-7.404,2.54-13.737,7.618-19c5.079-5.262,11.09-7.894,18.036-7.894   c7.312,0,13.545,2.586,18.701,7.756c5.155,5.171,7.733,11.335,7.733,18.495c0,7.526-2.524,13.951-7.572,19.275   c-5.048,5.323-11.167,7.985-18.357,7.985c-7.313,0-13.5-2.608-18.564-7.824C163.431,55.202,160.9,48.938,160.9,41.625z    M167.692,41.533c0,5.813,1.851,10.686,5.553,14.617c3.702,3.932,8.307,5.897,13.814,5.897c5.415,0,9.958-1.965,13.63-5.897   c3.671-3.931,5.507-8.834,5.507-14.709c0-5.966-1.859-10.869-5.576-14.708c-3.717-3.839-8.437-5.759-14.158-5.759   c-5.14,0-9.554,1.973-13.24,5.92C169.535,30.84,167.692,35.72,167.692,41.533z"
   id="path209"
   fill="#0083AE" />
	<path
   d="M225.013,66.82V22.854h-9.592v-6.517h9.592V0h6.471v16.338h9.592v6.517h-9.592V66.82H225.013z"
   id="path211"
   fill="#0083AE" />
	<path
   d="M243.049,50.941h6.654v0.184c0,3.151,0.902,5.76,2.708,7.825c1.805,2.065,4.039,3.098,6.7,3.098   c2.54,0,4.65-0.795,6.333-2.386c1.682-1.59,2.524-3.595,2.524-6.012c0-2.417-0.666-4.36-1.996-5.828   c-1.331-1.469-3.74-2.845-7.228-4.13c-5.599-1.988-9.255-4.023-10.969-6.104c-1.714-2.08-2.57-4.864-2.57-8.352   c0-3.947,1.43-7.297,4.291-10.051c2.86-2.753,6.325-4.13,10.395-4.13c4.314,0,7.74,1.224,10.28,3.671   c2.539,2.448,3.901,5.859,4.084,10.234h-6.93c-0.153-2.387-0.911-4.237-2.271-5.553c-1.362-1.315-3.22-1.974-5.576-1.974   c-2.111,0-3.871,0.711-5.277,2.134c-1.408,1.423-2.111,3.189-2.111,5.301c0,1.499,0.291,2.761,0.872,3.786   c0.581,1.025,1.544,1.95,2.891,2.776c1.224,0.765,3.006,1.5,5.347,2.203c2.34,0.705,3.908,1.224,4.704,1.561   c3.151,1.347,5.468,3.137,6.953,5.37c1.483,2.233,2.226,5.079,2.226,8.536c0,4.345-1.514,7.939-4.543,10.785   c-3.029,2.845-6.869,4.268-11.52,4.268c-4.743,0-8.552-1.552-11.427-4.658C244.716,60.388,243.201,56.204,243.049,50.941z"
   id="path213"
   fill="#0083AE" />
	<path
   d="M290.823,66.82h-6.563V54.612h6.563V66.82z"
   id="path215"
   fill="#8F8F8F" />
	<path
   d="M314.641,70.95c0.979,2.937,2.754,5.224,5.324,6.86s5.69,2.456,9.361,2.456   c5.752,0,10.364-1.913,13.837-5.737c3.472-3.824,5.209-8.933,5.209-15.328v-1.331c-2.448,3.335-5.231,5.852-8.353,7.549   c-3.121,1.698-6.563,2.547-10.326,2.547c-7.588,0-13.891-2.531-18.908-7.595c-5.018-5.063-7.525-11.374-7.525-18.931   c0-7.435,2.479-13.676,7.434-18.724c4.957-5.048,11.091-7.572,18.404-7.572c4.252,0,7.932,0.765,11.037,2.295   c3.104,1.53,5.852,3.917,8.237,7.159v-8.261h6.333v42.129c0,8.812-2.211,15.695-6.631,20.652   c-4.422,4.956-10.518,7.435-18.289,7.435c-5.721,0-10.632-1.416-14.731-4.245c-4.101-2.83-6.746-6.616-7.939-11.358H314.641z    M310.144,41.166c0,5.905,1.874,10.846,5.622,14.823c3.747,3.978,8.268,5.966,13.561,5.966c4.986,0,9.393-1.996,13.217-5.989   s5.737-8.681,5.737-14.066c0-5.751-1.882-10.662-5.646-14.731c-3.763-4.069-8.199-6.104-13.309-6.104   c-5.262,0-9.775,1.935-13.538,5.805C312.026,30.741,310.144,35.506,310.144,41.166z"
   id="path217"
   fill="#8F8F8F" />
	<path
   d="M362.002,41.625c0-7.404,2.539-13.737,7.618-19c5.079-5.262,11.091-7.894,18.036-7.894   c7.313,0,13.545,2.586,18.701,7.756c5.155,5.171,7.732,11.335,7.732,18.495c0,7.526-2.523,13.951-7.572,19.275   c-5.048,5.323-11.167,7.985-18.356,7.985c-7.313,0-13.501-2.608-18.563-7.824C364.534,55.202,362.002,48.938,362.002,41.625z    M368.795,41.533c0,5.813,1.85,10.686,5.553,14.617c3.701,3.932,8.307,5.897,13.813,5.897c5.415,0,9.958-1.965,13.63-5.897   c3.672-3.931,5.508-8.834,5.508-14.709c0-5.966-1.859-10.869-5.576-14.708c-3.718-3.839-8.438-5.759-14.158-5.759   c-5.141,0-9.554,1.973-13.24,5.92C370.637,30.84,368.795,35.72,368.795,41.533z"
   id="path219"
   fill="#8F8F8F" />
	<path
   d="M421.526,16.338h6.379v26.801c0,6.884,1.117,11.756,3.35,14.617c2.233,2.861,5.904,4.291,11.015,4.291   c2.907,0,5.462-0.588,7.665-1.767c2.202-1.178,3.977-2.883,5.322-5.117c0.766-1.315,1.316-2.868,1.652-4.658   c0.337-1.79,0.506-4.902,0.506-9.339V16.338h6.471V66.82h-6.471v-5.461c-1.959,2.387-4.146,4.115-6.563,5.186   s-5.339,1.606-8.765,1.606c-7.283,0-12.529-1.965-15.742-5.897c-3.213-3.931-4.818-10.456-4.818-19.573V16.338z"
   id="path221"
   fill="#8F8F8F" />
	<path
   d="M493.899,66.82h-5.92l-19.734-50.482h6.838l16.154,40.707l16.292-40.707h7.021L493.899,66.82z"
   id="path223"
   fill="#8F8F8F" />
	<path
   d="M520.012,66.82h-6.563V54.612h6.563V66.82z"
   id="path225"
   fill="#BCBCBC" />
	<path
   d="M544.197,66.82h-6.287V21.982h-6.746v-5.645h6.471v-1.377c0-5.354,1.354-9.316,4.062-11.886   s6.861-3.855,12.46-3.855h0.597v5.829c-3.886,0.062-6.632,0.834-8.238,2.317c-1.605,1.484-2.409,4.016-2.409,7.595v1.377h10.647   v5.645h-10.556V66.82z"
   id="path227"
   fill="#BCBCBC" />
	<path
   d="M567.51,66.82h-6.563V16.338h6.104v5.828c1.59-2.233,3.327-3.87,5.209-4.91   c1.881-1.04,4.076-1.591,6.586-1.652l0.045,7.021c-4.068,0.367-6.982,1.583-8.742,3.648c-1.76,2.065-2.639,5.423-2.639,10.074   V66.82z"
   id="path229"
   fill="#BCBCBC" />
</g>
</svg>